{"glyphs":{"0":{"ha":1183,"x_min":-1,"x_max":1193,"o":"m 1192 479 q 1126 97 1189 249 q 1078 -19 1114 67 q 1019 -99 1072 -33 q 972 -154 999 -125 q 799 -242 910 -207 q 694 -271 742 -260 l 588 -271 q 367 -217 450 -247 q 46 57 142 -133 q 1 228 -1 151 q 17 419 4 308 q 103 656 43 481 q 124 719 108 672 q 218 878 139 750 q 388 1036 278 974 q 410 1053 396 1043 q 493 1093 438 1068 q 536 1099 506 1099 q 571 1086 544 1099 q 688 1114 617 1119 q 1060 964 954 1094 q 1083 918 1067 949 q 1097 901 1089 913 q 1097 889 1100 896 q 1111 869 1100 888 q 1132 829 1118 854 q 1135 822 1135 826 q 1132 814 1135 818 q 1147 785 1144 796 q 1172 697 1158 757 q 1192 479 1193 549 m 633 717 l 596 725 q 563 688 593 724 q 489 560 499 611 q 567 638 533 603 q 633 717 617 690 m 789 313 q 768 443 789 378 l 586 257 q 586 243 585 250 q 615 183 593 218 q 668 160 644 165 q 688 156 678 156 q 747 188 717 156 q 783 246 775 215 q 789 313 789 267 z "},"1":{"ha":793,"x_min":-1,"x_max":803,"o":"m 799 -169 q 765 -190 797 -179 q 688 -208 750 -199 q 600 -222 610 -219 q 394 -261 444 -261 q 346 -260 338 -261 q 264 -274 278 -276 q 247 -225 246 -269 q 247 -162 249 -176 l 247 78 q 251 179 247 85 q 258 372 257 311 l 260 449 q 264 458 260 442 q 267 583 267 511 q 163 533 249 581 q 99 515 129 515 q 42 556 53 515 q 44 588 44 565 q 46 669 44 601 q 33 747 46 722 l 17 765 q -1 796 -1 783 q 38 846 -1 813 q 73 878 61 865 q 157 983 85 890 q 183 1029 178 1021 q 217 1067 201 1060 q 286 1075 240 1071 q 681 1113 540 1075 q 693 1111 685 1114 q 704 1108 701 1108 q 729 1107 725 1108 q 751 1093 742 1101 q 758 1065 760 1079 q 751 967 757 1040 q 747 960 750 965 q 749 953 747 958 q 750 944 750 947 q 746 932 746 929 l 746 717 q 754 582 746 718 l 763 446 l 763 321 q 765 308 763 317 q 767 296 767 300 q 781 -24 769 174 q 789 -81 781 -33 q 797 -125 789 -85 q 799 -169 803 -153 z "},"2":{"ha":954,"x_min":0,"x_max":989,"o":"m 989 -79 q 981 -101 989 -82 q 985 -107 981 -103 q 974 -108 976 -107 q 953 -126 964 -124 q 808 -153 890 -140 q 663 -176 771 -158 q 290 -249 539 -203 q 228 -264 258 -258 q 119 -275 144 -278 q 94 -271 100 -274 q 79 -258 81 -268 l 67 -164 q 56 -107 63 -149 q 36 -75 46 -97 q 39 56 29 -14 l 53 156 q 88 269 57 189 q 96 292 90 278 q 185 432 133 361 q 219 471 203 457 q 317 543 269 513 q 388 585 340 557 q 454 629 440 614 q 476 701 485 661 q 453 740 472 722 q 414 757 435 757 q 318 728 379 757 q 229 661 306 722 q 171 653 175 653 q 96 740 151 656 q 0 926 0 885 q 4 939 0 935 q 60 961 28 964 q 96 992 85 985 q 486 1114 290 1114 q 743 1058 617 1114 q 763 1047 750 1054 q 915 865 864 1003 q 926 843 919 858 q 943 749 943 792 q 888 589 943 658 q 756 478 849 542 q 728 463 743 472 q 608 376 693 439 q 531 297 583 354 q 499 250 526 288 l 501 247 q 651 283 553 263 q 897 294 747 294 q 932 268 928 294 q 989 -79 950 153 z "},"3":{"ha":1017,"x_min":1,"x_max":1024,"o":"m 1018 211 q 914 -69 1011 46 q 860 -135 888 -101 q 797 -190 828 -171 q 586 -271 685 -261 q 500 -274 531 -276 q 400 -258 463 -271 l 403 -257 q 378 -256 394 -257 q 307 -231 347 -247 q 299 -231 303 -232 q 264 -208 290 -221 q 261 -211 261 -208 q 243 -199 260 -207 q 163 -115 190 -153 q 151 -90 158 -106 q 122 -51 140 -78 q 122 -19 114 -35 q 222 153 172 74 q 301 203 254 203 q 338 199 308 203 q 447 147 385 147 q 556 214 518 147 q 567 261 567 233 q 535 343 567 308 q 456 378 503 378 q 290 311 394 378 q 244 304 263 304 q 200 319 219 304 q 143 478 192 378 q 119 526 136 490 q 125 553 113 542 q 251 644 154 578 q 372 743 331 700 q 63 717 279 733 q 18 726 65 718 q 1 747 13 738 q 7 868 1 754 q 11 908 11 892 l 11 975 q 24 1051 11 1021 q 61 1068 31 1068 q 90 1060 83 1068 q 258 1076 92 1060 q 604 1110 367 1089 q 682 1113 643 1113 l 726 1113 q 765 1092 756 1110 q 807 972 778 1053 q 825 935 814 960 q 871 800 840 889 q 869 772 871 790 q 814 739 860 767 q 700 671 764 708 q 665 646 688 665 q 744 635 692 644 q 760 628 750 632 q 967 439 878 606 q 968 428 967 435 q 1018 211 1024 328 z "},"4":{"ha":1372,"x_min":1,"x_max":1404,"o":"m 1404 269 q 1389 253 1400 263 q 1147 210 1279 213 q 1149 142 1147 185 l 1150 99 l 1150 1 q 1153 -58 1150 46 q 1154 -175 1156 -161 q 1163 -183 1158 -181 q 1167 -201 1167 -193 q 1140 -244 1167 -228 q 1083 -264 1113 -261 q 1067 -249 1069 -250 q 846 -269 957 -258 q 736 -274 826 -271 l 681 -275 q 635 -254 650 -272 q 626 -231 631 -247 q 625 -110 628 -179 q 624 -61 624 -74 l 624 60 q 613 160 624 92 q 396 147 532 163 l 160 121 q 67 117 101 114 q 39 133 61 117 q 17 368 38 215 q 1 489 8 426 q 165 743 110 571 q 179 779 171 754 q 194 872 186 817 q 206 938 194 893 q 233 950 214 950 l 258 950 q 488 1022 303 964 q 521 1022 504 1028 l 546 1014 q 560 986 558 997 q 564 890 563 968 q 554 794 564 910 q 489 585 549 728 q 496 581 492 583 q 564 583 517 583 q 609 585 579 583 q 654 586 639 586 q 665 625 663 601 q 686 861 678 728 q 686 950 689 897 l 685 981 q 682 986 685 982 q 683 1008 681 988 l 683 1056 q 707 1092 683 1085 q 757 1093 719 1094 l 815 1090 q 961 1103 838 1089 q 1001 1110 969 1104 q 1042 1115 1028 1115 q 1092 1093 1078 1115 q 1100 1050 1094 1083 q 1101 964 1101 1043 l 1101 857 q 1097 760 1101 925 l 1093 556 l 1365 544 q 1390 522 1376 544 q 1404 269 1392 438 z "},"5":{"ha":1060,"x_min":1,"x_max":1065,"o":"m 1061 192 q 1007 -29 1050 53 q 844 -186 957 -128 q 683 -253 753 -235 q 538 -275 636 -265 l 431 -275 q 271 -249 396 -275 q 99 -149 165 -215 q 97 -128 93 -140 q 151 8 115 -82 q 174 86 154 21 q 231 119 183 121 q 328 107 261 118 q 425 96 390 96 q 544 135 497 96 q 557 164 556 144 q 519 247 558 206 q 439 296 481 289 q 404 299 422 299 q 292 279 397 299 q 222 260 267 275 q 167 249 189 249 q 126 257 147 249 q 88 275 111 258 q 68 394 78 314 q 65 468 67 458 q 40 638 60 499 q 28 736 38 664 q 1 967 4 913 q 11 992 1 979 q 40 1014 13 994 q 88 1026 57 1015 q 149 1022 114 1022 q 375 1043 235 1022 q 782 1101 481 1058 q 838 1106 796 1103 q 914 1107 903 1111 q 933 1090 928 1100 q 939 928 932 1056 q 953 786 944 832 q 946 750 957 764 q 914 735 936 743 q 790 722 872 732 q 679 699 753 713 q 507 679 622 694 q 514 599 507 693 l 629 607 q 774 592 717 614 q 855 556 794 582 q 917 529 915 531 q 969 488 953 511 q 1042 351 1032 399 q 1061 192 1065 239 z "},"6":{"ha":1032,"x_min":1,"x_max":1043,"o":"m 1042 325 q 1033 232 1043 310 q 682 -221 996 -72 q 449 -274 554 -282 q 47 -50 128 -249 q 42 -44 46 -46 q 1 218 3 63 q 7 339 1 269 q 31 454 15 433 q 33 476 31 461 q 85 610 50 521 q 158 736 88 615 q 265 908 215 833 q 369 1024 294 951 q 489 1114 453 1104 q 505 1112 493 1115 q 521 1108 517 1108 q 581 1107 574 1108 q 607 1092 592 1099 q 629 1083 611 1090 q 701 1044 688 1042 q 782 1000 764 1011 q 843 939 835 965 q 836 908 850 917 q 718 778 763 863 q 647 654 692 738 q 661 653 651 650 q 708 658 682 658 q 910 593 794 658 q 960 557 926 583 q 1021 433 993 521 q 1042 325 1038 381 m 597 296 q 589 314 593 308 q 543 350 575 331 q 518 364 522 363 q 469 317 496 361 q 440 250 449 282 q 436 221 436 235 q 469 170 439 196 q 522 150 499 144 q 594 203 560 151 q 597 296 617 236 z "},"7":{"ha":860,"x_min":0,"x_max":881,"o":"m 879 799 q 879 779 881 794 q 874 763 876 765 q 788 688 825 725 q 624 332 668 568 q 614 283 621 319 q 601 163 601 206 l 601 -106 q 608 -187 603 -129 q 603 -203 607 -179 q 551 -224 567 -224 q 467 -233 519 -222 q 383 -247 407 -246 q 278 -256 351 -249 l 243 -260 q 193 -274 217 -268 q 171 -268 186 -275 q 149 -251 169 -256 q 125 -239 128 -246 q 139 -82 119 -228 q 150 -8 143 -62 q 279 513 189 328 q 297 544 279 521 q 301 564 299 551 q 358 678 325 601 q 210 656 306 676 q 61 631 108 633 q 50 632 57 632 q 7 649 22 636 q 0 685 4 651 l 0 793 q 8 993 4 835 q 60 1019 10 1026 q 82 1017 68 1018 q 250 1053 106 1019 q 324 1067 296 1064 q 399 1074 343 1068 q 694 1113 475 1085 q 740 1094 725 1117 q 794 950 750 1032 q 879 799 801 938 z "},"8":{"ha":1075,"x_min":0,"x_max":1078,"o":"m 1074 294 q 1076 254 1074 292 q 1076 208 1078 235 q 1068 158 1075 183 q 953 -50 1028 17 q 925 -78 943 -61 q 726 -207 842 -150 q 490 -275 588 -275 q 383 -264 454 -275 q 363 -257 376 -261 q 174 -178 281 -242 q 64 -70 113 -142 q 7 71 15 1 q 0 114 0 128 q 24 233 0 160 q 75 346 49 307 q 96 385 82 361 q 217 494 150 450 l 344 578 q 299 597 319 593 q 202 663 250 608 q 157 764 154 717 l 160 813 q 199 901 172 842 q 278 1008 226 960 q 543 1111 401 1124 q 776 1067 628 1104 q 901 1006 796 1063 q 974 917 928 992 q 983 886 981 906 q 963 721 994 803 q 842 571 949 685 q 992 458 928 526 q 1074 294 1074 374 m 664 772 q 646 834 664 806 q 597 863 628 863 q 582 861 590 863 q 544 818 564 856 q 535 775 532 794 q 568 736 538 751 q 625 722 599 721 q 664 772 664 719 m 590 172 q 590 203 594 189 q 547 281 576 251 q 450 319 533 288 q 445 315 449 318 q 440 311 442 313 q 401 218 401 257 q 435 150 401 178 q 510 122 468 122 q 540 128 526 122 q 570 146 551 129 q 590 172 589 163 z "},"9":{"ha":1017,"x_min":-1,"x_max":1018,"o":"m 1018 639 q 961 314 1018 538 q 869 60 910 114 q 790 -117 867 46 l 743 -218 q 735 -243 742 -226 q 674 -274 722 -260 q 490 -204 581 -228 q 408 -167 465 -190 l 369 -169 q 340 -157 351 -162 q 321 -136 322 -147 q 332 -93 319 -122 q 331 -85 331 -90 q 417 139 331 -57 q 483 313 465 250 q 426 303 492 313 q 325 293 378 296 q 97 376 201 288 q 15 501 29 435 q 10 525 14 507 q -1 633 -1 576 q 89 907 -1 783 q 465 1114 224 1092 q 564 1108 514 1118 q 597 1101 572 1107 q 696 1090 631 1100 q 901 972 818 1056 q 1004 761 989 882 q 1018 639 1018 647 m 629 636 q 629 661 629 649 q 586 742 629 724 q 553 744 574 747 q 546 747 543 747 q 514 676 532 724 q 507 646 507 647 q 531 601 508 619 q 581 583 554 583 q 597 588 590 583 q 611 594 604 588 q 629 636 628 622 z "}," ":{"ha":694,"x_min":0,"x_max":0,"o":""},"!":{"ha":475,"x_min":0,"x_max":461,"o":"m 461 961 l 461 804 q 458 724 461 778 q 456 643 456 669 l 456 554 q 435 282 456 496 q 436 268 436 276 q 432 229 436 253 q 404 215 428 222 q 371 207 381 207 q 99 214 272 208 q 36 228 64 215 q 24 258 21 235 q 28 269 25 263 q 26 467 25 431 q 40 689 31 525 q 43 785 40 714 l 53 1033 q 57 1082 54 1069 q 72 1104 63 1089 q 88 1107 79 1107 q 120 1099 99 1107 q 154 1093 142 1092 q 274 1097 194 1094 q 393 1113 339 1100 q 446 1104 404 1114 q 456 1089 450 1099 q 461 961 461 1014 m 454 -83 q 417 -190 454 -142 q 274 -268 364 -258 q 217 -274 246 -274 q 42 -201 114 -274 q 0 -74 0 -160 q 76 97 0 43 q 167 135 124 131 q 340 106 222 140 q 410 51 375 92 q 453 -26 444 10 q 454 -83 454 -32 z "},"\"":{"ha":858,"x_min":156,"x_max":846,"o":"m 839 936 q 825 756 846 842 q 775 635 813 704 q 693 550 726 546 q 665 549 676 546 q 635 561 646 553 q 567 686 599 583 q 533 819 539 772 q 517 993 526 867 q 513 1011 514 1000 q 517 1033 510 1025 q 561 1065 538 1061 q 576 1065 565 1067 q 592 1064 588 1064 q 615 1067 599 1064 q 640 1069 632 1069 q 753 1054 721 1064 q 831 971 818 1033 q 839 936 835 958 m 450 881 q 408 674 443 778 q 367 596 390 617 q 311 578 354 585 q 236 643 267 579 q 200 746 221 674 q 161 899 186 792 l 158 903 q 156 910 156 907 l 156 929 q 174 943 163 935 q 178 963 178 947 q 179 979 178 978 q 193 1001 183 989 q 321 1032 240 1024 q 426 1011 397 1039 q 450 881 456 953 z "},"#":{"ha":1233,"x_min":0,"x_max":1246,"o":"m 1244 721 q 1241 672 1244 704 q 1238 624 1238 639 q 1236 513 1235 528 q 1193 482 1221 490 q 1138 471 1190 481 q 1051 453 1118 467 q 1026 443 1033 449 q 1018 360 1022 407 q 1022 354 1019 358 q 1114 358 1025 354 q 1207 353 1176 361 q 1219 335 1217 344 q 1236 242 1231 297 q 1243 142 1246 153 q 1231 135 1239 140 q 1224 125 1228 133 q 1163 107 1201 114 q 1100 94 1117 100 q 1039 82 1083 88 q 1028 74 1038 83 q 1029 -158 1035 -106 q 1029 -214 1028 -171 q 1026 -224 1029 -218 q 986 -251 999 -251 q 811 -258 853 -251 q 747 -256 769 -265 q 738 -226 747 -251 q 732 -197 728 -201 q 718 -161 728 -186 q 718 -140 719 -154 q 694 -6 714 -90 q 682 18 693 6 q 589 25 660 25 q 600 -153 593 -47 q 604 -199 601 -172 q 604 -244 608 -235 q 582 -264 603 -247 q 558 -272 572 -272 q 518 -270 546 -272 q 475 -268 490 -268 q 306 -267 331 -272 l 306 -261 q 293 -243 303 -254 l 296 -235 q 286 -144 290 -197 q 288 -135 286 -143 q 285 -96 286 -110 l 288 -87 q 278 25 288 -53 q 267 29 276 28 q 64 36 189 28 q 40 107 47 53 l 29 189 q 22 207 26 196 q 15 233 24 218 q 51 274 29 264 q 228 329 96 293 q 235 399 235 367 q 228 457 235 432 q 85 456 183 457 q 64 465 75 464 l 51 485 q 32 497 46 494 q 25 510 29 500 q 11 596 24 536 q 0 683 0 651 q 3 721 0 703 q 93 753 14 753 q 172 757 139 753 q 178 772 178 761 q 176 792 178 794 q 179 907 183 856 l 172 986 q 200 1006 172 993 q 414 1072 233 1017 q 444 1072 425 1075 q 472 1057 465 1068 q 507 921 503 1006 q 513 771 508 879 q 632 769 558 767 q 646 813 639 781 q 667 936 646 839 l 668 965 q 672 1011 671 1004 q 697 1075 681 1063 q 772 1090 706 1081 q 893 1108 804 1094 q 971 1093 967 1121 q 974 1076 972 1083 q 989 981 990 1035 q 976 782 988 876 q 1188 757 986 776 q 1238 742 1210 754 q 1244 721 1244 735 m 657 328 q 651 456 660 372 l 638 456 q 625 457 628 457 q 538 447 635 457 q 540 333 536 372 q 657 328 603 326 z "},"+":{"ha":1118,"x_min":117,"x_max":1144,"o":"m 1144 388 q 1128 366 1144 379 q 1103 353 1113 353 q 971 326 1063 349 q 838 304 886 307 q 886 24 858 208 q 883 7 885 18 q 854 -15 865 -11 q 767 -35 828 -19 q 621 -78 715 -53 q 575 -85 606 -78 q 529 -92 544 -92 q 517 -90 525 -92 q 504 -87 508 -87 q 494 -72 501 -82 q 451 94 481 -17 q 454 99 453 96 q 442 150 449 115 q 439 154 442 151 q 435 189 438 165 q 432 189 433 190 q 428 208 426 199 q 424 226 422 214 q 415 235 422 229 q 328 258 385 249 q 238 275 260 268 q 194 274 224 272 q 157 289 183 281 q 144 301 147 292 q 146 329 146 297 q 142 355 146 338 q 139 381 139 372 q 119 556 126 469 q 119 599 117 586 q 124 610 121 606 q 185 631 146 636 q 192 635 188 632 q 351 643 253 640 q 364 650 360 644 q 371 722 367 675 q 379 869 374 763 q 375 924 382 906 q 401 942 385 932 q 575 976 469 953 q 663 989 638 990 q 711 957 694 988 q 742 808 732 919 l 751 703 q 751 656 753 688 q 850 661 772 656 q 950 663 911 665 q 1050 654 978 660 q 1126 540 1104 650 q 1144 388 1135 464 z "},",":{"ha":424,"x_min":28,"x_max":415,"o":"m 400 214 q 394 67 415 136 q 308 -100 381 19 q 271 -144 288 -135 q 115 -231 181 -199 q 89 -231 113 -232 q 78 -221 85 -226 q 74 -211 79 -214 q 92 -186 78 -203 l 92 -176 q 117 -142 96 -162 l 119 -142 q 125 -139 124 -140 q 146 -110 138 -128 l 157 -86 q 160 -82 157 -85 q 171 -46 165 -69 q 178 19 182 0 q 126 28 178 22 q 66 58 94 31 q 32 117 38 86 q 28 156 28 136 q 107 303 28 242 q 206 342 157 342 q 243 338 213 342 q 274 351 254 353 q 354 300 313 349 q 400 214 392 256 z "},"-":{"ha":599,"x_min":61,"x_max":578,"o":"m 575 492 q 575 463 578 485 q 526 444 564 447 l 363 435 l 256 435 q 74 451 96 435 q 67 507 67 474 l 67 586 q 65 674 67 631 q 63 683 65 676 q 61 692 61 689 q 63 718 61 686 q 78 732 67 724 q 107 733 88 736 q 125 731 117 732 q 135 738 128 735 q 181 743 147 739 q 506 772 369 778 q 538 764 532 771 q 540 760 538 761 q 556 588 546 703 q 568 507 560 565 q 575 492 571 503 z "},".":{"ha":528,"x_min":119,"x_max":515,"o":"m 497 -10 q 497 -121 515 -75 q 363 -224 463 -210 q 321 -228 332 -228 q 136 -117 179 -215 q 124 -51 119 -81 q 122 -19 122 -40 q 139 40 126 14 q 151 60 142 46 q 276 128 200 128 q 410 92 346 128 q 497 -10 481 53 z "},":":{"ha":563,"x_min":111,"x_max":558,"o":"m 533 711 q 533 589 553 640 q 385 476 497 493 q 339 472 350 471 q 179 531 235 481 q 136 593 154 553 q 122 665 118 633 q 121 700 121 676 q 139 767 125 735 q 151 788 142 774 q 289 863 206 863 q 436 824 367 863 q 533 711 515 781 m 550 192 q 378 25 558 54 q 132 128 188 18 q 118 221 111 168 q 178 333 125 279 q 288 389 231 388 q 365 381 324 389 q 394 374 381 378 q 436 350 408 364 q 494 315 476 335 q 547 199 543 264 q 550 192 547 196 z "},";":{"ha":533,"x_min":136,"x_max":533,"o":"m 506 747 q 506 643 522 686 q 455 579 492 607 q 379 546 418 551 q 339 543 353 542 q 165 647 207 553 q 154 708 150 681 q 153 738 153 718 q 168 794 157 765 q 179 813 172 803 q 296 876 225 876 q 424 846 367 876 q 506 747 488 810 m 517 344 q 511 193 533 265 q 424 24 496 143 q 385 -22 401 -12 q 225 -111 282 -82 q 199 -111 222 -112 q 186 -101 194 -106 q 182 -92 189 -93 q 201 -65 188 -82 q 200 -56 200 -61 q 226 -19 206 -46 l 231 -19 l 236 -17 q 254 10 242 -11 q 267 38 267 32 q 271 42 267 39 q 282 79 276 53 q 289 146 293 126 q 289 149 289 147 q 236 154 278 150 q 174 184 203 157 q 140 244 146 211 q 136 285 136 265 q 217 436 136 372 q 318 476 268 476 q 357 472 324 476 q 386 486 367 488 q 469 433 428 482 q 517 344 507 389 z "},"=":{"ha":679,"x_min":63,"x_max":692,"o":"m 75 1081 q 69 1071 76 1078 l 69 1082 q 75 1081 71 1082 m 658 854 q 635 707 649 832 l 635 603 q 639 578 639 589 q 589 546 639 546 q 551 549 576 546 q 514 551 526 551 q 435 557 492 553 q 357 560 417 558 q 222 557 300 561 q 135 561 178 554 q 72 600 67 572 q 94 783 82 651 q 94 828 93 797 q 111 843 101 832 q 117 858 113 849 q 282 892 181 882 q 419 899 356 899 l 468 899 q 629 888 514 899 q 656 874 643 885 q 658 854 660 868 m 689 199 q 671 186 682 189 q 264 150 479 150 q 185 147 247 150 q 86 146 124 144 q 76 150 83 146 q 65 154 68 154 q 69 160 67 156 l 68 164 q 65 168 65 167 q 67 213 67 182 q 63 219 67 215 q 68 329 68 267 q 70 353 68 338 q 72 378 72 369 q 72 500 71 496 q 88 515 74 511 q 126 515 108 521 q 163 507 131 511 q 208 500 172 504 l 319 497 q 508 500 404 499 q 615 485 542 499 q 672 471 643 479 q 688 460 683 468 q 685 417 688 446 q 683 375 683 389 l 683 290 q 686 229 683 294 q 689 214 688 224 q 689 199 692 203 z "},"?":{"ha":500,"x_min":0,"x_max":0,"o":""},"A":{"ha":888,"x_min":1,"x_max":875,"o":"m 875 47 q 872 14 875 42 q 867 6 869 8 q 849 -69 861 -19 q 815 -144 836 -119 q 747 -186 794 -169 q 722 -199 740 -190 q 557 -236 626 -226 q 449 -250 529 -239 q 269 -274 347 -265 q 125 -267 168 -275 q 26 -183 36 -249 q 10 -103 19 -157 q 6 -68 8 -94 q 7 -62 6 -65 q 8 -56 8 -58 q 7 17 7 -26 q 17 114 7 38 q 29 200 21 144 q 49 261 36 219 q 50 286 49 269 q 86 365 72 347 q 429 485 168 472 q 485 493 450 483 q 494 529 494 500 l 494 682 q 474 818 494 728 q 467 832 472 824 q 414 828 444 840 q 350 782 369 810 q 340 697 346 776 q 333 632 338 653 q 307 579 326 593 q 244 563 288 565 q 185 558 228 561 q 111 549 165 556 q 61 547 94 550 q 47 561 58 553 q 10 581 33 564 q 1 656 1 594 l 1 711 q 29 922 1 847 q 39 938 33 928 q 146 1019 53 978 q 299 1075 257 1069 q 378 1090 318 1079 q 671 1110 553 1121 q 765 1075 743 1103 q 800 978 782 1054 q 818 840 806 928 q 840 675 829 763 q 846 660 843 669 q 864 503 851 619 q 869 375 865 469 q 868 350 868 360 q 875 125 875 185 l 875 47 m 564 142 q 560 246 565 158 q 554 279 561 260 q 489 300 532 294 q 460 294 481 301 q 428 279 446 292 q 415 232 424 261 q 404 57 403 83 q 408 43 404 47 l 442 43 q 463 44 451 43 l 474 44 q 542 51 497 44 q 564 142 557 51 z "},"B":{"ha":769,"x_min":-3,"x_max":788,"o":"m 783 460 q 767 258 782 433 q 756 129 765 225 q 732 -57 750 81 l 728 -61 q 690 -182 721 -125 q 671 -200 686 -190 q 532 -250 619 -232 q 333 -275 406 -275 l 239 -275 q 214 -272 244 -275 q 21 -221 78 -260 q 0 -171 4 -210 q 0 -87 -3 -140 q 13 154 7 35 q 15 175 13 161 q 17 197 17 189 q 19 358 17 246 l 24 528 q 24 576 25 571 q 35 669 28 604 q 47 856 47 796 l 47 978 q 50 985 50 979 l 50 992 q 47 997 50 996 q 50 1038 51 1004 q 56 1075 49 1067 q 99 1085 68 1090 q 113 1082 108 1083 q 279 1111 201 1111 q 346 1110 340 1111 q 411 1093 382 1108 q 439 1038 421 1088 q 450 990 443 1026 q 457 968 453 982 l 474 838 l 474 754 q 507 711 474 710 q 550 715 528 713 l 581 719 l 660 719 q 700 711 671 717 q 767 636 757 700 q 772 624 769 632 q 783 460 788 558 m 467 163 q 461 161 460 163 q 464 171 460 169 q 463 182 465 176 q 463 231 464 207 q 456 285 461 254 q 451 288 454 286 q 453 296 453 290 q 442 357 447 326 q 422 411 432 399 l 422 421 q 386 390 397 425 q 381 336 378 364 q 388 244 386 279 q 388 197 386 224 q 396 121 388 190 q 411 117 401 117 q 467 139 436 117 l 467 163 z "},"C":{"ha":813,"x_min":-1,"x_max":807,"o":"m 804 213 q 804 14 807 144 q 795 -52 803 8 q 775 -146 788 -112 q 694 -232 751 -206 q 429 -272 618 -268 q 221 -267 322 -275 q 168 -261 181 -264 q 53 -151 63 -242 q 43 -121 49 -142 q 32 -33 32 -56 l 32 94 q 28 172 29 136 q 19 288 26 189 q 13 451 13 378 l 13 568 q 8 633 13 590 q 4 699 4 676 q 1 771 4 722 q -1 843 -1 819 q 13 946 -1 904 q 231 1069 33 1010 q 356 1099 282 1085 l 496 1111 q 542 1114 526 1114 q 703 1003 679 1114 q 715 932 706 983 q 743 756 743 775 q 668 647 743 676 q 540 615 607 624 q 489 615 506 611 q 474 626 483 619 q 460 676 472 635 q 436 789 456 714 q 363 771 394 793 q 358 733 361 768 q 356 728 358 731 q 351 615 351 661 q 354 556 351 578 l 354 383 q 360 313 360 358 l 360 242 q 364 196 360 215 q 389 163 371 165 q 449 163 431 157 q 458 238 453 164 q 474 383 468 339 q 607 476 496 458 q 728 485 700 492 q 744 469 744 481 q 778 443 758 464 q 797 339 789 410 q 804 213 800 315 z "},"D":{"ha":903,"x_min":-3,"x_max":904,"o":"m 900 39 q 863 -100 896 -24 q 785 -164 836 -142 q 685 -192 756 -176 l 550 -221 q 247 -265 515 -229 q 222 -270 239 -265 q 194 -275 204 -275 q 106 -272 122 -275 q 24 -224 46 -262 q 6 -46 -3 -144 q 13 71 8 -19 q 19 142 14 86 q 17 147 19 143 q 26 238 19 181 q 25 244 26 240 q 54 443 32 281 q 81 553 61 496 q 156 651 106 629 q 338 683 228 683 q 461 678 374 683 q 457 721 464 685 q 440 778 451 740 q 425 868 436 808 q 404 988 401 951 q 411 1033 404 997 q 422 1085 411 1076 q 569 1115 463 1115 q 738 1078 664 1115 q 774 1026 764 1064 q 783 961 778 994 l 782 958 q 808 807 789 938 l 813 803 q 869 469 840 658 q 897 182 881 396 q 900 39 904 94 m 585 175 q 540 386 585 218 q 526 399 538 392 q 510 404 515 406 q 440 371 453 393 q 407 225 410 315 q 408 81 404 103 q 478 69 411 67 q 567 81 524 71 q 585 175 585 114 z "},"E":{"ha":847,"x_min":1,"x_max":829,"o":"m 828 -71 q 804 -174 826 -93 q 782 -236 801 -197 q 647 -275 747 -272 q 460 -267 601 -276 q 286 -253 415 -262 q 119 -214 188 -246 q 10 -85 21 -169 l 4 -44 q 1 54 4 26 q 15 76 8 61 q 28 251 26 190 q 36 410 29 322 q 78 690 42 468 q 88 751 81 708 q 93 794 89 763 q 122 931 106 871 q 136 974 138 969 q 142 976 139 972 q 213 1072 138 1031 q 460 1111 307 1104 q 522 1111 489 1113 q 631 1092 542 1108 l 633 1089 q 713 1053 671 1079 q 772 993 760 1022 q 781 986 775 990 q 793 946 792 953 q 818 744 806 888 q 821 653 822 694 q 808 374 819 560 q 792 342 806 347 q 717 328 769 333 q 638 318 654 321 q 478 286 593 310 q 364 256 426 275 l 364 185 q 367 135 364 183 q 371 115 367 125 q 446 86 385 93 q 451 90 447 88 q 468 210 453 99 q 475 225 469 215 l 475 229 q 482 238 478 232 q 757 299 574 286 q 786 278 774 300 q 800 267 792 274 q 814 233 811 253 q 825 21 815 226 q 828 -71 829 -58 m 503 525 q 490 658 499 569 q 457 778 479 756 q 436 778 446 781 q 410 764 415 771 q 360 488 361 692 q 368 494 364 492 q 503 525 414 503 z "},"F":{"ha":790,"x_min":1,"x_max":803,"o":"m 803 715 q 801 669 803 711 q 779 651 794 663 q 733 642 763 649 q 582 604 653 604 q 521 617 531 604 q 488 751 514 625 q 478 778 488 761 q 432 706 432 769 q 439 647 432 686 q 446 588 446 607 q 449 558 446 578 q 451 529 451 539 q 458 529 453 528 q 565 546 517 543 q 633 519 619 550 q 657 408 643 483 q 664 353 661 365 q 656 310 671 322 q 494 256 628 288 q 486 250 492 254 q 496 138 493 181 q 499 133 497 136 q 521 -82 514 14 q 521 -196 526 -161 q 481 -229 518 -212 q 350 -251 429 -244 q 269 -265 340 -253 q 190 -274 224 -274 q 147 -268 165 -274 q 138 -257 147 -262 q 140 -246 138 -253 q 129 -207 135 -233 q 133 -104 128 -181 q 135 249 146 67 q 51 260 128 251 q 1 294 1 265 q 3 308 1 301 q 1 335 1 303 q 3 354 1 342 q 4 374 4 367 l 3 385 q 14 469 3 419 q 32 511 17 485 q 54 518 36 515 q 90 524 64 521 q 131 522 106 525 q 122 625 132 550 q 118 753 118 657 q 120 797 118 768 q 122 840 122 825 q 126 843 124 840 q 150 935 131 900 q 175 961 154 942 q 361 1058 239 1021 q 568 1106 415 1075 q 650 1113 624 1117 q 707 1080 682 1107 q 739 1021 732 1053 q 744 1013 742 1018 l 775 844 q 792 765 779 821 l 803 715 z "},"G":{"ha":829,"x_min":3,"x_max":815,"o":"m 815 -8 q 814 -104 815 -68 q 724 -233 810 -212 q 692 -247 713 -239 q 657 -251 681 -249 q 550 -275 625 -264 q 294 -260 492 -283 q 222 -251 275 -257 q 147 -243 160 -246 q 57 -156 71 -225 q 49 -107 49 -147 q 54 -17 49 -60 q 53 -8 56 -11 q 56 64 54 17 q 63 154 54 83 q 75 211 65 178 q 163 249 89 235 q 276 247 190 254 q 324 242 313 244 q 353 210 346 233 q 365 128 357 182 q 368 124 367 126 q 392 18 372 88 q 432 24 424 21 q 457 144 463 38 q 450 169 456 157 l 450 181 q 446 189 449 182 q 432 246 439 217 q 386 286 418 279 q 314 289 378 286 q 228 281 285 290 q 146 272 172 272 q 33 364 63 272 q 14 468 26 386 l 14 483 q 3 678 3 578 q 3 851 3 851 q 26 1018 4 947 q 40 1038 31 1025 q 51 1057 43 1044 q 149 1100 90 1089 q 253 1111 156 1101 l 321 1111 q 413 1108 339 1115 q 464 1099 443 1106 l 497 1099 q 588 1096 565 1099 q 667 1058 633 1088 q 719 986 704 1024 q 749 886 729 963 q 766 743 753 849 q 801 424 779 638 q 811 219 803 410 q 810 207 810 218 q 813 199 810 207 q 815 -8 815 104 m 369 801 q 360 822 369 808 q 338 822 346 825 q 321 815 322 817 q 292 817 288 815 q 286 765 292 814 q 283 714 283 742 q 292 624 283 681 q 303 540 303 549 q 332 539 314 538 q 360 542 347 540 q 369 801 379 685 z "},"H":{"ha":918,"x_min":-4,"x_max":906,"o":"m 900 -94 q 903 -121 900 -101 q 904 -151 906 -140 q 893 -179 903 -169 q 858 -206 879 -196 q 746 -240 792 -225 q 681 -265 721 -265 l 613 -265 q 504 -236 535 -265 q 442 110 486 -121 q 442 126 443 115 q 426 153 439 136 q 394 157 417 160 q 374 122 374 154 q 375 96 374 111 q 379 82 376 90 q 394 -43 381 61 l 392 -47 q 400 -222 408 -176 q 358 -268 394 -254 q 319 -276 336 -276 l 208 -276 q 118 -267 167 -276 q 43 -231 49 -253 q 39 -179 44 -212 q 42 -174 39 -178 q 39 -100 39 -153 l 39 50 q 42 122 39 90 q 31 261 38 164 q 35 296 31 257 l 31 300 q 28 499 31 289 q 25 565 28 526 l 22 610 l 22 785 q 19 790 22 786 q 11 875 17 828 q 7 907 11 886 q 10 914 8 910 q 3 971 10 922 q 49 1049 -4 1028 q 171 1078 89 1060 q 244 1083 193 1081 q 317 1071 288 1086 q 347 1000 338 1035 q 350 974 347 993 q 381 693 361 878 q 388 572 382 660 l 392 556 q 396 553 393 556 q 431 549 414 547 q 436 563 432 554 l 436 635 q 432 682 435 647 q 435 692 431 690 q 433 693 435 693 q 435 706 431 703 q 426 754 431 715 q 425 786 426 767 q 421 828 428 811 l 424 828 l 424 839 q 422 860 422 850 l 422 896 q 421 921 422 904 q 419 946 419 938 q 429 1060 421 961 q 510 1110 449 1106 q 614 1113 528 1111 q 690 1113 632 1115 q 744 1104 706 1114 q 756 1090 751 1101 q 786 1008 768 1067 l 794 951 q 821 801 800 917 q 835 636 826 744 q 843 535 836 618 q 847 517 844 529 l 890 78 q 899 -50 897 13 l 900 -94 z "},"I":{"ha":538,"x_min":-3,"x_max":535,"o":"m 400 1025 q 399 958 406 1008 q 383 889 392 907 q 382 874 383 883 q 356 794 375 847 q 311 708 356 754 q 281 697 306 703 q 213 704 265 690 q 139 736 197 708 q 83 763 125 744 q 49 783 72 767 q 8 818 17 806 q 1 869 -3 836 q 8 893 3 874 q 60 1050 8 908 q 76 1096 64 1064 q 106 1105 82 1103 q 133 1113 129 1107 q 179 1110 158 1113 q 349 1067 269 1097 q 400 1025 392 1050 m 535 -101 q 524 -119 535 -107 q 474 -167 494 -153 q 438 -185 460 -172 q 314 -242 372 -222 q 211 -275 292 -253 l 175 -275 q 138 -264 144 -275 q 103 -118 113 -224 q 88 101 100 -86 q 83 108 86 104 q 78 174 85 118 q 74 217 75 194 q 67 383 67 335 l 67 467 q 64 579 67 553 q 53 593 61 582 q 60 615 51 597 q 111 631 68 621 q 261 657 225 657 q 326 657 326 657 q 389 622 371 656 q 410 547 397 607 q 419 522 414 539 q 438 435 425 493 q 451 390 447 410 q 519 -17 492 215 q 528 -60 521 -28 q 535 -101 535 -86 z "},"J":{"ha":858,"x_min":1,"x_max":847,"o":"m 840 228 q 813 -132 847 119 q 794 -172 804 -149 q 674 -260 763 -251 q 607 -269 664 -261 q 539 -275 569 -275 q 424 -272 474 -275 l 349 -268 l 247 -268 q 232 -266 242 -268 q 217 -264 222 -264 q 6 -181 43 -262 q 4 -104 3 -175 l 6 -107 q 8 -96 8 -104 q 3 -87 8 -89 q 6 -79 1 -85 q 3 -51 3 -68 q 8 8 3 -28 q 6 15 10 11 q 10 29 10 21 q 8 40 10 33 q 14 124 8 40 q 19 235 18 176 l 22 238 q 26 282 29 263 q 28 300 28 286 q 60 351 35 328 q 113 378 85 374 q 224 390 199 390 q 306 372 278 390 q 331 268 313 368 q 365 93 347 178 q 381 90 374 88 q 401 99 389 92 q 439 199 439 136 q 435 253 439 217 q 432 307 432 289 q 426 332 432 311 q 425 346 425 340 q 408 500 422 390 q 403 526 404 532 q 404 539 404 538 q 394 617 403 546 l 371 828 q 365 844 368 833 q 351 1006 360 933 l 344 1064 q 396 1103 344 1083 q 471 1111 421 1113 q 639 1101 592 1108 q 776 1049 728 1089 q 785 1026 778 1047 q 794 982 789 1015 q 828 653 824 814 q 831 594 828 639 q 832 536 832 558 l 832 442 q 834 428 832 438 q 836 415 836 419 l 836 325 q 840 228 836 294 z "},"K":{"ha":1061,"x_min":-1,"x_max":1079,"o":"m 1075 817 q 1074 768 1079 782 q 1025 672 1061 743 q 922 471 997 618 q 883 390 913 450 q 829 286 869 364 q 824 253 821 269 q 829 238 825 244 q 881 185 839 228 q 971 63 888 178 q 1006 -14 1006 14 q 1003 -28 1006 -22 q 858 -200 978 -72 q 739 -258 803 -258 q 676 -224 713 -258 q 619 -165 636 -186 q 449 49 572 -108 q 413 93 436 68 q 406 -33 406 56 l 406 -151 q 281 -275 406 -275 q 244 -274 268 -275 q 208 -272 219 -272 q 178 -269 197 -272 q 149 -267 158 -267 q 3 -186 26 -264 q 0 -136 -1 -172 q 6 -51 1 -104 q 10 -7 7 -40 l 21 249 q 33 406 21 260 q 32 436 32 422 q 36 546 32 465 q 65 961 43 639 q 68 1028 65 978 q 75 1079 72 1036 q 83 1092 76 1082 l 92 1096 q 132 1097 107 1094 q 151 1110 138 1103 q 367 1096 169 1114 q 451 1076 385 1094 q 503 1046 483 1068 q 506 1038 506 1040 q 522 799 511 1019 q 515 682 525 756 q 504 567 504 601 q 506 547 504 558 q 594 638 539 578 q 663 714 622 668 q 750 810 692 746 l 774 836 q 785 843 781 838 q 850 919 815 882 q 917 967 876 949 q 944 967 921 969 q 974 960 967 964 q 1025 903 1007 942 q 1056 865 1040 894 q 1075 817 1072 836 z "},"L":{"ha":917,"x_min":3,"x_max":947,"o":"m 946 140 q 947 88 947 108 q 918 -125 947 -21 q 806 -185 908 -158 q 676 -212 742 -199 q 547 -242 647 -219 q 329 -269 440 -251 l 210 -274 q 96 -268 126 -276 q 22 -193 38 -253 q 8 -153 15 -179 q 3 24 3 -78 q 7 567 3 228 q 14 615 11 586 q 32 929 18 719 q 44 1042 35 958 q 72 1072 47 1060 q 94 1071 76 1075 q 169 1108 115 1107 q 301 1113 214 1108 q 329 1115 325 1115 q 431 1085 407 1115 q 475 864 449 1063 l 490 751 q 514 615 490 747 q 524 553 517 599 q 544 404 531 508 q 554 282 546 372 q 565 274 556 274 l 576 274 l 565 272 q 588 269 571 269 q 649 271 610 269 q 753 271 682 272 q 794 274 767 271 q 836 276 822 276 q 849 278 840 276 q 863 281 858 281 q 924 257 896 281 q 942 235 940 243 l 946 140 z "},"M":{"ha":1558,"x_min":-1,"x_max":1558,"o":"m 1551 -44 q 1544 -113 1558 -78 q 1499 -164 1529 -149 q 1460 -183 1488 -169 q 1429 -208 1450 -192 q 1397 -224 1419 -211 q 1375 -219 1401 -222 q 1360 -224 1371 -219 q 1342 -229 1349 -229 q 1225 -212 1318 -229 q 1175 -200 1219 -211 q 1113 -190 1124 -196 q 1083 -136 1089 -179 q 1079 -62 1082 -122 q 1074 -11 1076 -46 q 1065 67 1074 0 q 1056 132 1060 89 q 1049 453 1053 158 q 1035 635 1047 567 q 1017 676 1031 657 q 1008 676 1013 678 q 949 649 978 663 q 913 592 907 624 q 910 561 910 600 q 911 503 910 542 q 913 444 913 464 q 918 318 913 383 q 946 63 940 213 q 950 -87 947 24 q 935 -208 951 -125 q 868 -246 931 -229 q 690 -253 842 -253 q 656 -250 685 -253 q 619 -250 635 -249 q 564 -246 596 -253 q 532 -221 558 -244 q 511 -208 526 -217 q 488 110 488 -57 l 488 174 q 478 279 481 222 q 478 418 478 279 q 468 544 478 468 q 460 603 463 590 q 438 642 453 638 q 410 628 425 642 q 397 601 394 614 l 397 568 q 417 332 408 464 q 421 158 418 286 l 424 63 q 418 -31 421 32 q 383 -249 422 -204 q 281 -274 338 -276 l 174 -269 q 94 -268 158 -269 q 94 -264 97 -265 q 82 -265 90 -265 q 33 -253 58 -265 q 3 -219 8 -240 q 3 -90 -1 -203 q 8 -53 7 -75 q 13 99 13 18 l 13 303 q 15 336 13 324 q 17 339 17 349 q 20 374 17 340 q 24 442 24 408 l 24 578 q 25 642 24 622 q 35 750 31 696 q 43 921 43 838 l 43 972 q 51 1019 43 1003 q 232 1083 126 1057 q 301 1097 288 1097 q 338 1089 322 1097 q 360 1060 346 1085 q 361 1049 360 1056 q 382 949 374 1014 q 388 947 385 947 q 449 986 385 947 q 538 1021 472 994 q 678 1063 640 1063 q 779 1010 750 1063 q 799 947 790 990 q 817 886 807 904 q 1218 1113 1024 1086 q 1271 1107 1250 1117 q 1378 972 1338 1075 q 1404 896 1396 928 q 1449 601 1428 813 q 1471 451 1449 594 l 1522 110 l 1526 106 q 1551 -44 1529 61 m 160 -269 l 160 -265 l 149 -265 l 149 -269 l 160 -269 z "},"N":{"ha":1001,"x_min":-3,"x_max":997,"o":"m 993 -79 q 992 -126 994 -93 q 997 -143 997 -135 q 917 -211 997 -189 q 849 -240 900 -215 q 758 -258 818 -254 q 635 -265 726 -261 q 606 -262 621 -265 q 526 -119 536 -247 l 508 136 q 497 268 504 169 q 483 492 494 331 q 443 700 472 643 q 404 680 419 704 q 389 631 389 656 l 389 549 q 403 307 389 486 q 419 129 406 279 q 424 101 419 124 q 425 19 426 53 q 422 -106 421 -85 q 415 -147 422 -81 q 404 -239 406 -231 q 347 -265 397 -254 q 281 -275 306 -275 l 182 -275 q 67 -261 83 -265 q 6 -197 8 -246 q 0 -11 1 -111 q 7 525 -3 325 q 21 828 13 626 q 26 983 22 883 q 35 994 29 986 q 36 1011 35 1001 q 161 1083 71 1076 q 186 1090 167 1086 q 300 1113 294 1113 q 390 1049 361 1113 q 400 1013 396 1031 q 421 975 408 988 q 706 1051 611 1051 q 751 1049 729 1051 q 757 1046 753 1049 q 788 1039 778 1044 q 903 824 878 986 q 935 497 938 600 q 939 436 935 485 q 954 292 940 417 l 972 129 q 993 -79 978 75 z "},"O":{"ha":936,"x_min":1,"x_max":931,"o":"m 925 276 q 924 121 931 151 q 868 17 911 68 q 794 -68 847 -7 q 631 -231 704 -174 q 592 -257 611 -244 q 524 -274 578 -262 q 285 -228 435 -279 q 147 -181 246 -215 q 25 -96 47 -146 q 14 -78 21 -90 q 8 -44 8 -56 q 10 -37 8 -40 q 6 -31 10 -36 q 3 -21 3 -25 l 3 115 q 6 151 3 128 q 6 206 7 164 q 3 208 6 207 q 6 225 1 213 q 3 231 6 226 q 8 338 6 278 q 7 375 6 350 q 11 388 11 389 l 11 399 q 10 413 10 408 q 12 421 10 415 q 14 429 14 426 q 15 472 17 460 l 19 476 q 25 524 21 496 q 31 599 26 526 q 36 622 33 606 q 33 650 36 626 q 36 661 35 642 q 36 710 39 694 q 40 733 40 718 l 40 744 q 39 757 39 751 q 50 904 39 849 q 51 911 50 907 q 53 917 53 915 q 78 1007 53 971 q 242 1099 129 1081 q 326 1113 263 1103 q 401 1113 346 1115 q 408 1110 403 1113 q 417 1107 414 1107 q 439 1110 424 1107 q 463 1113 454 1113 l 614 1108 q 749 1083 700 1106 q 799 996 781 1068 q 806 976 801 989 q 821 886 810 946 q 825 876 822 883 q 856 714 832 833 q 889 572 864 676 q 903 464 893 531 l 904 451 q 925 276 922 331 m 503 706 q 489 801 500 735 q 456 822 485 810 q 429 842 447 825 q 403 638 410 753 l 390 413 q 379 331 388 396 q 376 257 378 321 q 378 203 375 213 q 414 169 383 179 q 499 147 494 144 q 543 222 513 157 q 553 286 553 243 q 533 496 553 365 l 503 706 z "},"P":{"ha":854,"x_min":0,"x_max":871,"o":"m 871 849 q 850 636 869 746 q 842 593 849 625 q 804 493 839 582 l 793 471 q 690 354 774 419 q 499 222 658 329 q 460 179 471 204 q 460 150 457 172 l 478 8 q 489 -99 489 -81 q 474 -169 489 -147 q 414 -210 460 -190 q 360 -231 400 -215 q 313 -250 346 -236 q 192 -275 247 -275 q 97 -226 121 -275 q 96 -215 94 -221 q 92 -212 93 -211 l 92 -207 q 69 -143 85 -185 l 65 -122 q 58 -100 65 -112 q 32 72 49 -43 q 33 74 33 72 l 13 299 q 6 386 13 332 q 7 407 6 393 l 7 419 q 6 445 7 428 q 4 471 4 463 q 0 557 4 526 l 4 563 l 1 571 q 15 924 8 682 q 22 1057 17 968 q 53 1075 24 1060 q 126 1110 89 1104 l 279 1110 q 506 1075 342 1101 q 729 1007 635 1054 q 751 999 738 1004 q 811 964 772 988 q 860 911 824 954 q 871 849 871 865 m 536 692 q 453 769 533 743 q 393 788 436 774 q 390 710 393 768 q 389 632 388 661 q 415 475 392 579 q 449 500 435 485 q 536 692 540 604 z "},"Q":{"ha":1111,"x_min":0,"x_max":1118,"o":"m 1101 607 l 1097 603 q 1083 489 1096 579 q 1075 464 1081 482 q 1040 331 1061 371 q 1036 315 1039 325 q 1011 268 1029 299 q 1010 261 1011 265 q 918 156 982 219 q 890 128 910 149 q 907 85 897 101 q 944 94 924 94 q 1003 79 974 94 q 1011 67 1006 75 q 1028 19 1026 44 q 1024 -32 1028 11 q 981 -79 1022 -49 q 829 -190 972 -85 q 756 -229 817 -200 q 690 -261 735 -240 q 642 -274 665 -271 q 635 -272 640 -274 q 626 -269 629 -269 q 584 -247 608 -268 q 551 -206 560 -225 q 531 -172 543 -201 q 522 -136 525 -160 q 524 -87 518 -101 q 603 -22 528 -78 q 576 22 586 13 q 528 39 560 39 l 406 39 q 331 31 379 36 l 282 31 q 213 57 250 31 q 144 114 203 64 q 58 214 115 139 q 19 289 39 251 q 0 371 0 332 q 8 426 0 396 q 17 463 11 438 l 125 700 l 167 775 q 268 961 189 826 q 326 1046 278 975 q 353 1076 336 1057 q 372 1076 360 1078 q 486 1113 426 1110 q 563 1107 506 1114 q 669 1094 590 1104 q 792 1056 697 1090 q 988 949 940 1000 q 996 946 994 947 q 1078 865 1043 913 q 1088 850 1081 860 q 1083 844 1088 849 q 1092 843 1088 844 q 1118 739 1118 799 q 1101 607 1118 717 m 731 691 q 728 701 731 691 q 708 746 725 711 q 678 768 701 753 q 553 813 613 810 q 531 794 546 813 q 499 753 506 764 q 444 646 488 735 l 419 594 q 407 551 415 579 q 386 485 397 542 q 381 429 381 456 q 478 325 381 354 l 546 304 q 582 317 561 304 q 697 386 635 347 q 726 551 714 469 q 736 640 736 615 q 731 691 736 671 z "},"R":{"ha":836,"x_min":0,"x_max":868,"o":"m 864 639 q 850 606 863 617 q 747 553 811 569 q 670 529 679 536 q 642 517 661 522 q 599 515 638 515 q 574 517 592 515 q 546 518 556 518 q 488 560 499 515 q 475 613 482 576 q 472 647 475 600 q 469 689 471 668 q 457 729 467 717 q 413 695 433 721 q 396 646 392 669 l 451 364 q 488 193 461 319 q 504 64 503 117 q 510 -47 506 35 q 513 -137 514 -101 q 503 -192 511 -168 q 481 -210 501 -196 q 349 -257 444 -233 q 210 -279 258 -279 q 97 -206 121 -279 q 83 -104 89 -181 q 79 -47 82 -90 q 65 151 72 83 q 47 428 56 244 q 30 701 39 611 q 14 874 21 792 q 8 908 11 886 q 0 926 4 914 q 3 935 0 929 q 6 944 6 940 q 6 978 4 956 q 74 1046 19 1015 q 208 1082 90 1056 q 283 1101 246 1092 q 361 1111 329 1113 q 365 1108 363 1111 q 411 1060 400 1118 q 422 1008 419 1015 q 663 1099 531 1099 q 774 1058 744 1099 q 808 939 792 1033 q 824 874 811 924 q 842 800 825 872 q 864 639 868 690 z "},"S":{"ha":883,"x_min":3,"x_max":881,"o":"m 881 69 q 879 -11 881 7 q 876 -22 878 -14 q 871 -76 875 -57 q 871 -94 872 -85 q 806 -229 854 -201 q 746 -256 788 -239 q 718 -260 743 -257 q 686 -267 707 -262 q 572 -275 583 -275 l 468 -275 q 426 -274 449 -275 l 382 -271 l 178 -271 q 71 -247 106 -271 q 46 -179 51 -233 q 47 -167 47 -175 q 46 -119 47 -160 q 43 -112 46 -118 q 42 -101 40 -106 q 44 -81 44 -89 q 39 -64 44 -68 q 43 -58 40 -62 q 42 50 40 -11 q 47 156 42 71 q 57 183 51 165 q 64 188 60 186 q 149 222 83 210 q 239 238 172 226 q 292 238 278 243 q 318 197 306 232 q 347 113 332 158 q 369 56 358 79 q 469 88 424 56 q 492 97 488 94 q 510 114 504 104 q 486 211 519 132 q 454 251 481 224 q 224 286 347 267 q 160 301 222 286 q 110 313 138 307 q 53 361 68 326 q 39 438 43 383 q 29 524 38 460 q 13 713 11 667 q 9 728 13 718 q 6 743 6 738 q 3 789 4 757 q 6 922 3 790 q 8 929 7 925 q 189 1072 17 1018 q 251 1088 221 1082 q 408 1111 386 1111 l 560 1111 q 575 1108 564 1111 q 649 1086 625 1097 l 664 1076 q 692 1051 671 1072 q 738 928 714 1014 q 781 768 749 886 q 779 714 790 732 q 657 639 754 675 q 514 607 568 606 q 476 650 496 607 q 451 713 464 682 q 417 781 432 757 q 406 783 413 783 q 351 767 389 783 q 349 742 351 758 q 347 717 347 725 q 353 621 347 703 q 363 546 356 579 q 369 540 364 544 l 388 540 q 413 539 401 539 l 458 539 q 460 540 451 539 q 485 540 469 540 l 511 540 q 615 532 525 540 q 638 518 622 526 q 733 494 663 513 q 804 471 744 492 q 863 354 840 454 q 861 347 861 351 q 881 149 881 231 l 881 69 z "},"T":{"ha":861,"x_min":-1,"x_max":863,"o":"m 863 0 q 854 -82 861 -22 q 815 -201 842 -129 q 610 -274 779 -274 l 508 -274 q 296 -251 418 -274 q 233 -235 271 -247 q 228 -231 232 -233 q 161 -92 163 -208 q 160 -81 161 -92 q 160 -58 160 -69 l 160 -22 q 160 -22 160 -29 q 161 0 161 -15 q 161 24 161 15 q 160 74 158 69 q 167 89 163 79 q 169 196 167 146 l 175 301 q 176 410 175 343 q 167 503 178 467 q 153 514 164 513 q 54 526 104 518 q 28 532 33 529 q 0 582 1 543 q 22 771 -1 639 q 79 817 38 810 q 186 821 150 828 l 192 821 l 192 901 q 199 1035 192 961 q 235 1065 201 1046 q 367 1113 310 1108 q 431 1106 388 1114 q 485 1082 449 1101 q 506 1031 503 1064 q 518 853 506 954 l 533 853 q 546 854 544 854 l 625 854 q 701 844 663 849 q 801 681 801 824 q 806 642 801 672 q 797 604 808 621 q 728 575 792 594 q 579 528 728 575 q 554 508 567 524 q 540 478 542 492 q 531 367 538 449 l 513 185 q 515 140 513 161 q 547 135 518 136 q 583 133 557 135 l 588 138 q 625 300 593 207 q 682 358 638 335 q 763 379 722 379 q 813 364 797 379 q 833 317 824 351 q 850 151 846 272 q 854 83 851 132 q 856 31 854 69 q 859 16 856 26 q 863 0 863 6 z "},"U":{"ha":1117,"x_min":-1,"x_max":1107,"o":"m 1106 744 q 1103 740 1106 743 q 1090 374 1101 540 q 1079 125 1086 318 q 1075 118 1078 122 q 1069 -29 1074 72 q 1056 -115 1069 -46 q 1049 -157 1051 -136 q 1032 -194 1043 -185 q 1021 -199 1028 -196 q 831 -257 936 -251 q 764 -214 789 -260 q 733 -132 757 -203 q 710 -69 724 -104 q 638 -133 679 -92 q 560 -208 575 -196 q 464 -258 518 -242 q 410 -272 449 -262 q 361 -275 374 -275 q 100 -143 199 -271 q 61 -93 90 -131 q 24 -1 47 -75 q 10 51 13 35 q 3 119 3 101 l 3 131 q 4 142 4 139 q 2 149 4 144 q 0 157 0 154 q 1 201 -1 174 q 4 246 4 235 l 4 361 q 3 418 4 372 q 3 435 3 418 l 3 619 q 4 653 3 638 l 4 747 q 8 796 8 765 l 8 817 q 7 839 7 832 q 38 913 7 865 q 61 949 44 929 q 108 968 86 963 q 128 967 115 967 q 150 975 135 969 q 315 1008 204 986 q 354 1014 304 1008 q 393 1017 379 1017 q 496 917 490 1017 q 493 744 500 826 q 483 663 490 724 q 461 322 461 411 l 461 235 q 482 190 461 208 q 529 171 503 171 q 582 215 567 171 q 597 292 583 218 q 629 619 618 403 q 639 821 635 721 q 640 836 639 826 q 717 1053 642 1003 q 907 1111 811 1117 q 936 1097 917 1104 q 1036 1085 964 1099 q 1074 1057 1067 1075 q 1075 1047 1074 1054 q 1101 906 1088 1018 q 1103 836 1107 863 l 1103 758 q 1106 744 1107 753 z "},"V":{"ha":1089,"x_min":1,"x_max":1118,"o":"m 1110 969 q 1047 703 1094 819 q 974 482 1013 618 q 939 360 965 450 q 864 156 919 290 q 806 15 849 119 q 751 -128 792 -26 q 725 -164 743 -147 l 717 -168 q 531 -260 681 -207 q 482 -275 507 -268 q 453 -264 476 -275 q 422 -247 429 -253 q 347 -69 382 -178 q 306 51 338 -37 q 233 199 274 136 q 214 232 222 213 q 108 471 158 354 q 82 539 101 489 q 36 644 69 567 q 13 721 31 657 q 1 772 10 738 q 61 903 10 828 q 85 924 71 908 q 219 1047 151 1031 q 254 1046 238 1051 q 325 975 303 1029 q 347 889 332 946 q 451 582 354 864 q 539 336 488 478 q 569 390 558 358 q 714 818 575 407 q 753 949 722 847 q 793 1050 761 976 q 821 1099 799 1068 q 863 1113 833 1108 q 938 1103 881 1115 q 1064 1075 981 1097 q 1110 969 1118 1053 z "},"W":{"ha":1861,"x_min":0,"x_max":1869,"o":"m 1868 740 q 1853 654 1867 688 q 1850 633 1853 646 q 1804 475 1843 603 q 1789 436 1799 463 q 1765 306 1783 400 q 1726 161 1749 253 q 1696 26 1718 126 q 1692 -4 1694 15 q 1643 -94 1675 -62 q 1557 -154 1625 -112 q 1469 -200 1526 -172 q 1397 -232 1447 -219 q 1338 -232 1386 -233 q 1222 -124 1276 -186 q 1121 -1 1189 -83 q 1119 6 1121 1 q 1036 122 1078 64 q 943 224 978 199 q 917 146 940 215 q 886 50 915 143 q 885 32 886 43 q 851 -61 860 -40 q 806 -156 829 -117 q 788 -176 799 -162 q 722 -240 758 -225 q 718 -247 721 -243 q 636 -276 663 -276 q 528 -218 593 -276 q 467 -140 501 -194 q 276 183 443 -103 q 114 501 247 235 q 82 563 106 517 q 44 642 72 583 q 17 713 24 685 l 0 783 q 1 839 0 790 l 10 851 q 21 876 15 860 q 115 956 43 889 q 285 1044 211 1044 q 403 961 367 1044 l 408 956 q 436 897 418 936 l 449 872 q 467 810 456 851 q 472 801 469 807 q 511 678 483 753 q 556 556 551 569 l 560 531 q 610 386 589 438 q 633 342 618 371 q 665 417 658 371 q 676 488 668 436 q 719 690 690 549 q 714 692 718 692 q 719 696 714 688 q 757 882 732 761 l 765 903 q 790 1015 772 942 q 806 1047 796 1026 q 810 1069 806 1054 q 836 1097 818 1090 q 911 1110 876 1113 q 940 1114 925 1114 q 1019 1088 989 1114 q 1068 1010 1032 1076 q 1135 886 1100 958 q 1154 835 1139 878 q 1181 782 1164 818 q 1243 613 1207 704 q 1307 486 1246 606 q 1338 581 1317 492 q 1383 776 1342 599 q 1435 999 1390 807 q 1453 1068 1442 1031 q 1489 1100 1461 1097 q 1505 1096 1493 1100 q 1524 1092 1517 1092 q 1642 1044 1579 1086 q 1744 965 1649 1040 q 1783 918 1767 947 q 1863 832 1825 890 q 1868 740 1869 800 z "},"X":{"ha":1188,"x_min":-3,"x_max":1199,"o":"m 1199 117 q 1151 35 1182 74 q 965 -136 1044 -99 q 924 -150 936 -150 q 824 -62 886 -150 q 756 51 814 -49 q 676 157 713 124 q 617 96 640 133 q 497 -75 569 24 q 368 -207 447 -144 q 314 -251 365 -208 q 224 -275 276 -275 q 100 -218 129 -275 q 93 -167 93 -204 q 114 -67 93 -137 q 149 31 132 -3 q 243 233 183 101 q 269 319 271 294 q 193 424 249 361 q 42 606 104 524 q 3 711 -3 664 q 6 743 3 722 q 50 806 13 758 q 54 824 51 813 q 251 968 153 975 q 393 879 322 964 q 531 728 456 804 q 619 828 575 761 q 692 942 656 885 q 696 953 693 946 q 768 1046 739 1015 q 868 1110 824 1106 q 922 1113 892 1113 q 1096 1099 1003 1114 q 1132 1082 1125 1094 q 1133 999 1144 1063 q 1075 829 1119 915 q 999 689 1038 760 q 946 550 946 586 q 972 494 946 532 q 1121 269 1071 351 q 1193 140 1156 208 q 1199 117 1194 132 z "},"Y":{"ha":936,"x_min":1,"x_max":924,"o":"m 501 806 m 501 771 m 924 60 q 838 -106 924 -32 q 763 -143 829 -112 q 511 -240 644 -197 q 408 -268 447 -261 q 283 -275 363 -269 q 206 -254 244 -278 q 167 -217 192 -246 q 136 -172 143 -187 q 125 -149 129 -156 q 114 -140 121 -146 q 101 -89 106 -129 q 94 13 94 -21 q 100 153 94 78 q 108 183 103 164 q 126 253 108 206 q 171 286 138 268 q 263 300 214 300 q 275 298 267 300 q 288 296 283 296 l 378 289 q 403 286 399 288 q 421 274 418 282 q 449 158 428 229 q 481 117 453 144 q 488 115 483 115 q 549 158 506 115 q 557 217 560 181 q 553 250 554 257 q 554 258 553 254 q 532 351 551 290 q 510 376 519 374 q 461 382 489 382 q 369 372 426 382 q 278 358 299 360 q 181 354 211 353 q 14 510 10 361 q 13 511 14 511 q 1 632 1 556 q 4 721 1 665 l 7 776 l 7 878 q 10 892 7 890 q 8 904 8 899 q 10 914 8 910 q 7 917 10 915 q 10 924 7 919 q 10 949 11 932 q 7 960 7 958 q 21 972 11 964 q 38 978 26 974 q 61 1000 46 988 q 164 1028 104 1021 l 215 1028 q 235 1026 221 1028 q 321 946 301 1019 q 335 814 332 906 q 343 674 339 706 q 407 639 356 649 q 449 633 435 633 q 475 643 468 633 q 485 668 475 643 q 499 776 494 686 q 503 778 501 776 q 499 822 501 779 q 504 810 500 821 l 504 810 q 503 832 506 818 q 501 828 501 831 q 499 824 500 825 q 501 843 499 833 q 504 838 501 839 q 506 850 506 840 q 499 957 506 869 q 501 996 499 946 q 523 1057 503 1025 q 569 1097 543 1089 q 644 1111 601 1108 q 789 1092 747 1119 q 800 1069 792 1090 q 826 981 818 1025 q 878 682 842 906 q 885 650 879 674 q 892 567 885 621 q 901 481 900 499 q 913 329 904 442 q 919 256 914 313 q 924 182 924 210 l 924 60 z "},"Z":{"ha":1040,"x_min":1,"x_max":1039,"o":"m 1039 669 q 1024 586 1039 636 q 986 513 1007 529 q 899 453 960 490 q 622 339 740 390 q 493 256 558 311 q 415 135 417 190 q 426 124 415 131 q 454 115 432 121 q 514 96 458 114 q 578 85 547 85 q 649 129 633 85 q 664 171 656 143 q 676 239 664 188 q 690 290 679 250 q 736 339 703 324 q 801 357 751 346 l 899 357 l 942 344 q 1007 229 1007 314 q 996 143 1007 196 q 875 -136 976 50 q 849 -185 868 -153 q 724 -267 821 -247 q 644 -275 679 -275 q 444 -247 546 -274 q 238 -192 388 -231 q 136 -168 188 -181 q 42 -128 79 -154 q 3 -40 15 -110 q 1 -3 4 -26 q 3 38 1 -7 q 17 150 4 94 q 32 188 18 154 q 42 222 35 199 q 69 279 53 242 q 121 371 82 329 q 207 425 160 413 q 265 461 214 426 q 392 518 288 475 q 503 560 444 539 q 564 576 504 560 q 625 603 599 586 q 649 626 631 610 q 689 736 696 671 l 689 754 q 651 817 681 788 q 588 853 621 846 q 524 840 568 857 q 439 756 463 818 q 417 651 431 733 q 406 589 417 629 q 228 554 385 557 q 83 618 114 553 q 56 654 67 654 q 60 738 56 682 q 63 819 64 794 q 68 853 61 836 q 65 860 71 860 q 72 871 65 864 q 68 878 72 876 q 74 892 69 874 q 72 910 72 899 q 89 981 88 947 q 126 1058 90 1007 q 460 1111 181 1113 q 675 1101 521 1111 q 986 1011 929 1086 q 1017 938 1008 982 q 1022 931 1018 935 q 1026 881 1025 922 l 1029 878 q 1039 819 1039 810 l 1039 669 m 71 808 l 71 819 l 65 819 l 65 808 l 71 808 m 60 656 l 60 671 l 56 671 l 56 656 l 60 656 z "},"a":{"ha":889,"x_min":1,"x_max":875,"o":"m 875 47 q 872 14 875 42 q 867 6 869 8 q 849 -69 861 -19 q 815 -144 836 -119 q 747 -186 794 -169 q 722 -199 740 -190 q 557 -236 626 -226 q 449 -250 529 -239 q 269 -274 347 -265 q 125 -267 168 -275 q 26 -183 36 -249 q 10 -103 19 -157 q 6 -68 8 -94 q 7 -62 6 -65 q 8 -56 8 -58 q 7 17 7 -26 q 17 114 7 38 q 29 200 21 144 q 49 261 36 219 q 50 286 49 269 q 86 365 72 347 q 429 485 168 472 q 485 493 450 483 q 494 529 494 500 l 494 682 q 474 818 494 728 q 467 832 472 824 q 414 828 444 840 q 350 782 369 810 q 340 697 346 776 q 333 632 338 653 q 307 579 326 593 q 244 563 288 565 q 185 558 228 561 q 111 549 165 556 q 61 547 94 550 q 47 561 58 553 q 10 581 33 564 q 1 656 1 594 l 1 711 q 29 922 1 847 q 39 938 33 928 q 146 1019 53 978 q 299 1075 257 1069 q 378 1090 318 1079 q 671 1110 553 1121 q 765 1075 743 1103 q 800 978 782 1054 q 818 840 806 928 q 840 675 829 763 q 846 660 843 669 q 864 503 851 619 q 869 375 865 469 q 868 350 868 360 q 875 125 875 185 l 875 47 m 564 142 q 560 246 565 158 q 554 279 561 260 q 489 300 532 294 q 460 294 481 301 q 428 279 446 292 q 415 232 424 261 q 404 57 403 83 q 408 43 404 47 l 442 43 q 463 44 451 43 l 474 44 q 542 51 497 44 q 564 142 557 51 z "},"b":{"ha":769,"x_min":-3,"x_max":788,"o":"m 783 460 q 767 258 782 433 q 756 129 765 225 q 732 -57 750 81 l 728 -61 q 690 -182 721 -125 q 671 -200 686 -190 q 532 -250 619 -232 q 333 -275 406 -275 l 239 -275 q 214 -272 244 -275 q 21 -221 78 -260 q 0 -171 4 -210 q 0 -87 -3 -140 q 13 154 7 35 q 15 175 13 161 q 17 197 17 189 q 19 358 17 246 l 24 528 q 24 576 25 571 q 35 669 28 604 q 47 856 47 796 l 47 978 q 50 985 50 979 l 50 992 q 47 997 50 996 q 50 1038 51 1004 q 56 1075 49 1067 q 99 1085 68 1090 q 113 1082 108 1083 q 279 1111 201 1111 q 346 1110 340 1111 q 411 1093 382 1108 q 439 1038 421 1088 q 450 990 443 1026 q 457 968 453 982 l 474 838 l 474 754 q 507 711 474 710 q 550 715 528 713 l 581 719 l 660 719 q 700 711 671 717 q 767 636 757 700 q 772 624 769 632 q 783 460 788 558 m 467 163 q 461 161 460 163 q 464 171 460 169 q 463 182 465 176 q 463 231 464 207 q 456 285 461 254 q 451 288 454 286 q 453 296 453 290 q 442 357 447 326 q 422 411 432 399 l 422 421 q 386 390 397 425 q 381 336 378 364 q 388 244 386 279 q 388 197 386 224 q 396 121 388 190 q 411 117 401 117 q 467 139 436 117 l 467 163 z "},"c":{"ha":813,"x_min":-1,"x_max":807,"o":"m 804 213 q 804 14 807 144 q 795 -52 803 8 q 775 -146 788 -112 q 694 -232 751 -206 q 429 -272 618 -268 q 221 -267 322 -275 q 168 -261 181 -264 q 53 -151 63 -242 q 43 -121 49 -142 q 32 -33 32 -56 l 32 94 q 28 172 29 136 q 19 288 26 189 q 13 451 13 378 l 13 568 q 8 633 13 590 q 4 699 4 676 q 1 771 4 722 q -1 843 -1 819 q 13 946 -1 904 q 231 1069 33 1010 q 356 1099 282 1085 l 496 1111 q 542 1114 526 1114 q 703 1003 679 1114 q 715 932 706 983 q 743 756 743 775 q 668 647 743 676 q 540 615 607 624 q 489 615 506 611 q 474 626 483 619 q 460 676 472 635 q 436 789 456 714 q 363 771 394 793 q 358 733 361 768 q 356 728 358 731 q 351 615 351 661 q 354 556 351 578 l 354 383 q 360 313 360 358 l 360 242 q 364 196 360 215 q 389 163 371 165 q 449 163 431 157 q 458 238 453 164 q 474 383 468 339 q 607 476 496 458 q 728 485 700 492 q 744 469 744 481 q 778 443 758 464 q 797 339 789 410 q 804 213 800 315 z "},"d":{"ha":903,"x_min":-3,"x_max":904,"o":"m 900 39 q 863 -100 896 -24 q 785 -164 836 -142 q 685 -192 756 -176 l 550 -221 q 247 -265 515 -229 q 222 -270 239 -265 q 194 -275 204 -275 q 106 -272 122 -275 q 24 -224 46 -262 q 6 -46 -3 -144 q 13 71 8 -19 q 19 142 14 86 q 17 147 19 143 q 26 238 19 181 q 25 244 26 240 q 54 443 32 281 q 81 553 61 496 q 156 651 106 629 q 338 683 228 683 q 461 678 374 683 q 457 721 464 685 q 440 778 451 740 q 425 868 436 808 q 404 988 401 951 q 411 1033 404 997 q 422 1085 411 1076 q 569 1115 463 1115 q 738 1078 664 1115 q 774 1026 764 1064 q 783 961 778 994 l 782 958 q 808 807 789 938 l 813 803 q 869 469 840 658 q 897 182 881 396 q 900 39 904 94 m 585 175 q 540 386 585 218 q 526 399 538 392 q 510 404 515 406 q 440 371 453 393 q 407 225 410 315 q 408 81 404 103 q 478 69 411 67 q 567 81 524 71 q 585 175 585 114 z "},"e":{"ha":847,"x_min":1,"x_max":829,"o":"m 828 -71 q 804 -174 826 -93 q 782 -236 801 -197 q 647 -275 747 -272 q 460 -267 601 -276 q 286 -253 415 -262 q 119 -214 188 -246 q 10 -85 21 -169 l 4 -44 q 1 54 4 26 q 15 76 8 61 q 28 251 26 190 q 36 410 29 322 q 78 690 42 468 q 88 751 81 708 q 93 794 89 763 q 122 931 106 871 q 136 974 138 969 q 142 976 139 972 q 213 1072 138 1031 q 460 1111 307 1104 q 522 1111 489 1113 q 631 1092 542 1108 l 633 1089 q 713 1053 671 1079 q 772 993 760 1022 q 781 986 775 990 q 793 946 792 953 q 818 744 806 888 q 821 653 822 694 q 808 374 819 560 q 792 342 806 347 q 717 328 769 333 q 638 318 654 321 q 478 286 593 310 q 364 256 426 275 l 364 185 q 367 135 364 183 q 371 115 367 125 q 446 86 385 93 q 451 90 447 88 q 468 210 453 99 q 475 225 469 215 l 475 229 q 482 238 478 232 q 757 299 574 286 q 786 278 774 300 q 800 267 792 274 q 814 233 811 253 q 825 21 815 226 q 828 -71 829 -58 m 503 525 q 490 658 499 569 q 457 778 479 756 q 436 778 446 781 q 410 764 415 771 q 360 488 361 692 q 368 494 364 492 q 503 525 414 503 z "},"f":{"ha":790,"x_min":1,"x_max":803,"o":"m 803 715 q 801 669 803 711 q 779 651 794 663 q 733 642 763 649 q 582 604 653 604 q 521 617 531 604 q 488 751 514 625 q 478 778 488 761 q 432 706 432 769 q 439 647 432 686 q 446 588 446 607 q 449 558 446 578 q 451 529 451 539 q 458 529 453 528 q 565 546 517 543 q 633 519 619 550 q 657 408 643 483 q 664 353 661 365 q 656 310 671 322 q 494 256 628 288 q 486 250 492 254 q 496 138 493 181 q 499 133 497 136 q 521 -82 514 14 q 521 -196 526 -161 q 481 -229 518 -212 q 350 -251 429 -244 q 269 -265 340 -253 q 190 -274 224 -274 q 147 -268 165 -274 q 138 -257 147 -262 q 140 -246 138 -253 q 129 -207 135 -233 q 133 -104 128 -181 q 135 249 146 67 q 51 260 128 251 q 1 294 1 265 q 3 308 1 301 q 1 335 1 303 q 3 354 1 342 q 4 374 4 367 l 3 385 q 14 469 3 419 q 32 511 17 485 q 54 518 36 515 q 90 524 64 521 q 131 522 106 525 q 122 625 132 550 q 118 753 118 657 q 120 797 118 768 q 122 840 122 825 q 126 843 124 840 q 150 935 131 900 q 175 961 154 942 q 361 1058 239 1021 q 568 1106 415 1075 q 650 1113 624 1117 q 707 1080 682 1107 q 739 1021 732 1053 q 744 1013 742 1018 l 775 844 q 792 765 779 821 l 803 715 z "},"g":{"ha":829,"x_min":3,"x_max":815,"o":"m 815 -8 q 814 -104 815 -68 q 724 -233 810 -212 q 692 -247 713 -239 q 657 -251 681 -249 q 550 -275 625 -264 q 294 -260 492 -283 q 222 -251 275 -257 q 147 -243 160 -246 q 57 -156 71 -225 q 49 -107 49 -147 q 54 -17 49 -60 q 53 -8 56 -11 q 56 64 54 17 q 63 154 54 83 q 75 211 65 178 q 163 249 89 235 q 276 247 190 254 q 324 242 313 244 q 353 210 346 233 q 365 128 357 182 q 368 124 367 126 q 392 18 372 88 q 432 24 424 21 q 457 144 463 38 q 450 169 456 157 l 450 181 q 446 189 449 182 q 432 246 439 217 q 386 286 418 279 q 314 289 378 286 q 228 281 285 290 q 146 272 172 272 q 33 364 63 272 q 14 468 26 386 l 14 483 q 3 678 3 578 q 3 851 3 851 q 26 1018 4 947 q 40 1038 31 1025 q 51 1057 43 1044 q 149 1100 90 1089 q 253 1111 156 1101 l 321 1111 q 413 1108 339 1115 q 464 1099 443 1106 l 497 1099 q 588 1096 565 1099 q 667 1058 633 1088 q 719 986 704 1024 q 749 886 729 963 q 766 743 753 849 q 801 424 779 638 q 811 219 803 410 q 810 207 810 218 q 813 199 810 207 q 815 -8 815 104 m 369 801 q 360 822 369 808 q 338 822 346 825 q 321 815 322 817 q 292 817 288 815 q 286 765 292 814 q 283 714 283 742 q 292 624 283 681 q 303 540 303 549 q 332 539 314 538 q 360 542 347 540 q 369 801 379 685 z "},"h":{"ha":918,"x_min":-4,"x_max":906,"o":"m 900 -94 q 903 -121 900 -101 q 904 -151 906 -140 q 893 -179 903 -169 q 858 -206 879 -196 q 746 -240 792 -225 q 681 -265 721 -265 l 613 -265 q 504 -236 535 -265 q 442 110 486 -121 q 442 126 443 115 q 426 153 439 136 q 394 157 417 160 q 374 122 374 154 q 375 96 374 111 q 379 82 376 90 q 394 -43 381 61 l 392 -47 q 400 -222 408 -176 q 358 -268 394 -254 q 319 -276 336 -276 l 208 -276 q 118 -267 167 -276 q 43 -231 49 -253 q 39 -179 44 -212 q 42 -174 39 -178 q 39 -100 39 -153 l 39 50 q 42 122 39 90 q 31 261 38 164 q 35 296 31 257 l 31 300 q 28 499 31 289 q 25 565 28 526 l 22 610 l 22 785 q 19 790 22 786 q 11 875 17 828 q 7 907 11 886 q 10 914 8 910 q 3 971 10 922 q 49 1049 -4 1028 q 171 1078 89 1060 q 244 1083 193 1081 q 317 1071 288 1086 q 347 1000 338 1035 q 350 974 347 993 q 381 693 361 878 q 388 572 382 660 l 392 556 q 396 553 393 556 q 431 549 414 547 q 436 563 432 554 l 436 635 q 432 682 435 647 q 435 692 431 690 q 433 693 435 693 q 435 706 431 703 q 426 754 431 715 q 425 786 426 767 q 421 828 428 811 l 424 828 l 424 839 q 422 860 422 850 l 422 896 q 421 921 422 904 q 419 946 419 938 q 429 1060 421 961 q 510 1110 449 1106 q 614 1113 528 1111 q 690 1113 632 1115 q 744 1104 706 1114 q 756 1090 751 1101 q 786 1008 768 1067 l 794 951 q 821 801 800 917 q 835 636 826 744 q 843 535 836 618 q 847 517 844 529 l 890 78 q 899 -50 897 13 l 900 -94 z "},"i":{"ha":538,"x_min":-3,"x_max":535,"o":"m 400 1025 q 399 958 406 1008 q 383 889 392 907 q 382 874 383 883 q 356 794 375 847 q 311 708 356 754 q 281 697 306 703 q 213 704 265 690 q 139 736 197 708 q 83 763 125 744 q 49 783 72 767 q 8 818 17 806 q 1 869 -3 836 q 8 893 3 874 q 60 1050 8 908 q 76 1096 64 1064 q 106 1105 82 1103 q 133 1113 129 1107 q 179 1110 158 1113 q 349 1067 269 1097 q 400 1025 392 1050 m 535 -101 q 524 -119 535 -107 q 474 -167 494 -153 q 438 -185 460 -172 q 314 -242 372 -222 q 211 -275 292 -253 l 175 -275 q 138 -264 144 -275 q 103 -118 113 -224 q 88 101 100 -86 q 83 108 86 104 q 78 174 85 118 q 74 217 75 194 q 67 383 67 335 l 67 467 q 64 579 67 553 q 53 593 61 582 q 60 615 51 597 q 111 631 68 621 q 261 657 225 657 q 326 657 326 657 q 389 622 371 656 q 410 547 397 607 q 419 522 414 539 q 438 435 425 493 q 451 390 447 410 q 519 -17 492 215 q 528 -60 521 -28 q 535 -101 535 -86 z "},"j":{"ha":851,"x_min":1,"x_max":847,"o":"m 840 228 q 813 -132 847 119 q 794 -172 804 -149 q 674 -260 763 -251 q 607 -269 664 -261 q 539 -275 569 -275 q 424 -272 474 -275 l 349 -268 l 247 -268 q 232 -266 242 -268 q 217 -264 222 -264 q 6 -181 43 -262 q 4 -104 3 -175 l 6 -107 q 8 -96 8 -104 q 3 -87 8 -89 q 6 -79 1 -85 q 3 -51 3 -68 q 8 8 3 -28 q 6 15 10 11 q 10 29 10 21 q 8 40 10 33 q 14 124 8 40 q 19 235 18 176 l 22 238 q 26 282 29 263 q 28 300 28 286 q 60 351 35 328 q 113 378 85 374 q 224 390 199 390 q 306 372 278 390 q 331 268 313 368 q 365 93 347 178 q 381 90 374 88 q 401 99 389 92 q 439 199 439 136 q 435 253 439 217 q 432 307 432 289 q 426 332 432 311 q 425 346 425 340 q 408 500 422 390 q 403 526 404 532 q 404 539 404 538 q 394 617 403 546 l 371 828 q 365 844 368 833 q 351 1006 360 933 l 344 1064 q 396 1103 344 1083 q 471 1111 421 1113 q 639 1101 592 1108 q 776 1049 728 1089 q 785 1026 778 1047 q 794 982 789 1015 q 828 653 824 814 q 831 594 828 639 q 832 536 832 558 l 832 442 q 834 428 832 438 q 836 415 836 419 l 836 325 q 840 228 836 294 z "},"k":{"ha":1061,"x_min":-1,"x_max":1079,"o":"m 1075 817 q 1074 768 1079 782 q 1025 672 1061 743 q 922 471 997 618 q 883 390 913 450 q 829 286 869 364 q 824 253 821 269 q 829 238 825 244 q 881 185 839 228 q 971 63 888 178 q 1006 -14 1006 14 q 1003 -28 1006 -22 q 858 -200 978 -72 q 739 -258 803 -258 q 676 -224 713 -258 q 619 -165 636 -186 q 449 49 572 -108 q 413 93 436 68 q 406 -33 406 56 l 406 -151 q 281 -275 406 -275 q 244 -274 268 -275 q 208 -272 219 -272 q 178 -269 197 -272 q 149 -267 158 -267 q 3 -186 26 -264 q 0 -136 -1 -172 q 6 -51 1 -104 q 10 -7 7 -40 l 21 249 q 33 406 21 260 q 32 436 32 422 q 36 546 32 465 q 65 961 43 639 q 68 1028 65 978 q 75 1079 72 1036 q 83 1092 76 1082 l 92 1096 q 132 1097 107 1094 q 151 1110 138 1103 q 367 1096 169 1114 q 451 1076 385 1094 q 503 1046 483 1068 q 506 1038 506 1040 q 522 799 511 1019 q 506 585 526 711 q 506 547 503 567 q 594 638 539 578 q 663 714 622 668 q 750 810 692 746 l 774 836 q 785 843 781 838 q 850 919 815 882 q 917 967 876 949 q 944 967 921 969 q 974 960 967 964 q 1025 903 1007 942 q 1056 865 1040 894 q 1075 817 1072 836 z "},"l":{"ha":917,"x_min":3,"x_max":947,"o":"m 946 140 q 947 88 947 108 q 918 -125 947 -21 q 806 -185 908 -158 q 676 -212 742 -199 q 547 -242 647 -219 q 329 -269 440 -251 l 210 -274 q 96 -268 126 -276 q 22 -193 38 -253 q 8 -153 15 -179 q 3 24 3 -78 q 7 567 3 228 q 14 615 11 586 q 32 929 18 719 q 44 1042 35 958 q 72 1072 47 1060 q 94 1071 76 1075 q 169 1108 115 1107 q 301 1113 214 1108 q 329 1115 325 1115 q 431 1085 407 1115 q 475 864 449 1063 l 490 751 q 514 615 490 747 q 524 553 517 599 q 544 404 531 508 q 554 282 546 372 q 565 274 556 274 l 576 274 l 565 272 q 588 269 571 269 q 649 271 610 269 q 753 271 682 272 q 794 274 767 271 q 836 276 822 276 q 849 278 840 276 q 863 281 858 281 q 924 257 896 281 q 942 235 940 243 l 946 140 z "},"m":{"ha":1558,"x_min":-1,"x_max":1558,"o":"m 1551 -44 q 1544 -113 1558 -78 q 1499 -164 1529 -149 q 1460 -183 1488 -169 q 1429 -208 1450 -192 q 1397 -224 1419 -211 q 1375 -219 1401 -222 q 1360 -224 1371 -219 q 1342 -229 1349 -229 q 1225 -212 1318 -229 q 1175 -200 1219 -211 q 1113 -190 1124 -196 q 1083 -136 1089 -179 q 1079 -62 1082 -122 q 1074 -11 1076 -46 q 1065 67 1074 0 q 1056 132 1060 89 q 1049 453 1053 158 q 1035 635 1047 567 q 1017 676 1031 657 q 1008 676 1013 678 q 949 649 978 663 q 913 592 907 624 q 910 561 910 600 q 911 503 910 542 q 913 444 913 464 q 918 318 913 383 q 946 63 940 213 q 950 -87 947 24 q 935 -208 951 -125 q 868 -246 931 -229 q 690 -253 842 -253 q 656 -250 685 -253 q 619 -250 635 -249 q 564 -246 596 -253 q 532 -221 558 -244 q 511 -208 526 -217 q 488 110 488 -57 l 488 174 q 478 279 481 222 q 478 418 478 279 q 468 544 478 468 q 460 603 463 590 q 438 642 453 638 q 410 628 425 642 q 397 601 394 614 l 397 568 q 417 332 408 464 q 421 158 418 286 l 424 63 q 418 -31 421 32 q 383 -249 422 -204 q 281 -274 338 -276 l 174 -269 q 94 -268 158 -269 q 94 -264 97 -265 q 82 -265 90 -265 q 33 -253 58 -265 q 3 -219 8 -240 q 3 -90 -1 -203 q 8 -53 7 -75 q 13 99 13 18 l 13 303 q 15 336 13 324 q 17 339 17 349 q 20 374 17 340 q 24 442 24 408 l 24 578 q 25 642 24 622 q 35 750 31 696 q 43 921 43 838 l 43 972 q 51 1019 43 1003 q 232 1083 126 1057 q 301 1097 288 1097 q 338 1089 322 1097 q 360 1060 346 1085 q 361 1049 360 1056 q 382 949 374 1014 q 388 947 385 947 q 449 986 385 947 q 538 1021 472 994 q 678 1063 640 1063 q 779 1010 750 1063 q 799 947 790 990 q 817 886 807 904 q 1218 1113 1024 1086 q 1271 1107 1250 1117 q 1378 972 1338 1075 q 1404 896 1396 928 q 1449 601 1428 813 q 1471 451 1449 594 l 1522 110 l 1526 106 q 1551 -44 1529 61 m 160 -269 l 160 -265 l 149 -265 l 149 -269 l 160 -269 z "},"n":{"ha":1001,"x_min":-3,"x_max":997,"o":"m 993 -79 q 992 -126 994 -93 q 997 -143 997 -135 q 917 -211 997 -189 q 849 -240 900 -215 q 758 -258 818 -254 q 635 -265 726 -261 q 606 -262 621 -265 q 526 -119 536 -247 l 508 136 q 497 268 504 169 q 483 492 494 331 q 443 700 472 643 q 404 680 419 704 q 389 631 389 656 l 389 549 q 403 307 389 486 q 419 129 406 279 q 424 101 419 124 q 425 19 426 53 q 422 -106 421 -85 q 415 -147 422 -81 q 404 -239 406 -231 q 347 -265 397 -254 q 281 -275 306 -275 l 182 -275 q 67 -261 83 -265 q 6 -197 8 -246 q 0 -11 1 -111 q 7 525 -3 325 q 21 828 13 626 q 26 983 22 883 q 35 994 29 986 q 36 1011 35 1001 q 161 1083 71 1076 q 186 1090 167 1086 q 300 1113 294 1113 q 390 1049 361 1113 q 400 1013 396 1031 q 421 975 408 988 q 706 1051 611 1051 q 751 1049 729 1051 q 757 1046 753 1049 q 788 1039 778 1044 q 903 824 878 986 q 935 497 938 600 q 939 436 935 485 q 954 292 940 417 l 972 129 q 993 -79 978 75 z "},"o":{"ha":936,"x_min":1,"x_max":931,"o":"m 925 276 q 924 121 931 151 q 868 17 911 68 q 794 -68 847 -7 q 631 -231 704 -174 q 592 -257 611 -244 q 524 -274 578 -262 q 285 -228 435 -279 q 147 -181 246 -215 q 25 -96 47 -146 q 14 -78 21 -90 q 8 -44 8 -56 q 10 -37 8 -40 q 6 -31 10 -36 q 3 -21 3 -25 l 3 115 q 6 151 3 128 q 6 206 7 164 q 3 208 6 207 q 6 225 1 213 q 3 231 6 226 q 8 338 6 278 q 7 375 6 350 q 11 388 11 389 l 11 399 q 10 413 10 408 q 12 421 10 415 q 14 429 14 426 q 15 472 17 460 l 19 476 q 25 524 21 496 q 31 599 26 526 q 36 622 33 606 q 33 650 36 626 q 36 661 35 642 q 36 710 39 694 q 40 733 40 718 l 40 744 q 39 757 39 751 q 50 904 39 849 q 51 911 50 907 q 53 917 53 915 q 78 1007 53 971 q 242 1099 129 1081 q 326 1113 263 1103 q 401 1113 346 1115 q 408 1110 403 1113 q 417 1107 414 1107 q 439 1110 424 1107 q 463 1113 454 1113 l 614 1108 q 749 1083 700 1106 q 799 996 781 1068 q 806 976 801 989 q 821 886 810 946 q 825 876 822 883 q 856 714 832 833 q 889 572 864 676 q 903 464 893 531 l 904 451 q 925 276 922 331 m 503 706 q 489 801 500 735 q 456 822 485 810 q 429 842 447 825 q 403 638 410 753 l 390 413 q 379 331 388 396 q 376 257 378 321 q 378 203 375 213 q 414 169 383 179 q 499 147 494 144 q 543 222 513 157 q 553 286 553 243 q 533 496 553 365 l 503 706 z "},"p":{"ha":854,"x_min":0,"x_max":871,"o":"m 871 849 q 850 636 869 746 q 842 593 849 625 q 804 493 839 582 l 793 471 q 690 354 774 419 q 499 222 658 329 q 460 179 471 204 q 460 150 457 172 l 478 8 q 489 -99 489 -81 q 474 -169 489 -147 q 414 -210 460 -190 q 360 -231 400 -215 q 313 -250 346 -236 q 192 -275 247 -275 q 97 -226 121 -275 q 96 -215 94 -221 q 92 -212 93 -211 l 92 -207 q 69 -143 85 -185 l 65 -122 q 58 -100 65 -112 q 32 72 49 -43 q 33 74 33 72 l 13 299 q 6 386 13 332 q 7 407 6 393 l 7 419 q 6 445 7 428 q 4 471 4 463 q 0 557 4 526 l 4 563 l 1 571 q 15 924 8 682 q 22 1057 17 968 q 53 1075 24 1060 q 126 1110 89 1104 l 279 1110 q 506 1075 342 1100 q 729 1007 636 1053 q 751 999 738 1004 q 811 964 772 988 q 860 911 824 954 q 871 849 871 865 m 536 692 q 453 769 533 743 q 393 788 436 774 q 390 710 393 768 q 389 632 388 661 q 415 475 392 579 q 449 500 435 485 q 536 692 540 604 z "},"q":{"ha":1111,"x_min":0,"x_max":1118,"o":"m 1101 607 l 1097 603 q 1083 489 1096 579 q 1075 464 1081 482 q 1040 331 1061 371 q 1036 315 1039 325 q 1011 268 1029 299 q 1010 261 1011 265 q 918 156 982 219 q 890 128 910 149 q 907 85 897 101 q 944 94 924 94 q 1003 79 974 94 q 1011 67 1006 75 q 1028 19 1026 44 q 1024 -32 1028 11 q 981 -79 1022 -49 q 829 -190 972 -85 q 756 -229 817 -200 q 690 -261 735 -240 q 642 -274 665 -271 q 635 -272 640 -274 q 626 -269 629 -269 q 584 -247 608 -268 q 551 -206 560 -225 q 531 -172 543 -201 q 522 -136 525 -160 q 524 -87 518 -101 q 603 -22 528 -78 q 576 22 586 13 q 528 39 560 39 l 406 39 q 331 31 379 36 l 282 31 q 213 57 250 31 q 144 114 203 64 q 58 214 115 139 q 19 289 39 251 q 0 371 0 332 q 8 426 0 396 q 17 463 11 438 l 125 700 l 167 775 q 268 961 189 826 q 326 1046 278 975 q 353 1076 336 1057 q 372 1076 360 1078 q 486 1113 426 1110 q 563 1107 506 1114 q 669 1094 590 1104 q 792 1056 697 1090 q 988 949 940 1000 q 996 946 994 947 q 1078 865 1043 913 q 1088 850 1081 860 q 1083 844 1088 849 q 1092 843 1088 844 q 1118 739 1118 799 q 1101 607 1118 717 m 731 691 q 728 701 731 691 q 708 746 725 711 q 678 768 701 753 q 553 813 613 810 q 531 794 546 813 q 499 753 506 764 q 444 646 488 735 l 419 594 q 407 551 415 579 q 386 485 397 542 q 381 429 381 456 q 478 325 381 354 l 546 304 q 582 317 561 304 q 697 386 635 347 q 726 551 714 469 q 736 640 736 615 q 731 691 736 671 z "},"r":{"ha":836,"x_min":0,"x_max":868,"o":"m 864 639 q 850 606 863 617 q 747 553 811 569 q 670 529 679 536 q 642 517 661 522 q 599 515 638 515 q 574 517 592 515 q 546 518 556 518 q 488 560 499 515 q 475 613 482 576 q 472 647 475 600 q 469 689 471 668 q 457 729 467 717 q 413 695 433 721 q 396 646 392 669 l 451 364 q 488 193 461 319 q 504 64 503 117 q 510 -47 506 35 q 513 -137 514 -101 q 503 -192 511 -168 q 481 -210 501 -196 q 349 -257 444 -233 q 210 -279 258 -279 q 97 -206 121 -279 q 83 -104 89 -181 q 79 -47 82 -90 q 65 151 72 83 q 47 428 56 244 q 30 701 39 611 q 14 874 21 792 q 8 908 11 886 q 0 926 4 914 q 3 935 0 929 q 6 944 6 940 q 6 978 4 956 q 74 1046 19 1015 q 208 1082 90 1056 q 283 1101 246 1092 q 361 1111 329 1113 q 365 1108 363 1111 q 411 1060 400 1118 q 422 1008 419 1015 q 663 1099 531 1099 q 774 1058 744 1099 q 808 939 792 1033 q 824 874 811 924 q 842 800 825 872 q 864 639 868 690 z "},"s":{"ha":883,"x_min":3,"x_max":881,"o":"m 881 69 q 879 -11 881 7 q 876 -22 878 -14 q 871 -76 875 -57 q 871 -94 872 -85 q 806 -229 854 -203 q 746 -256 783 -242 q 718 -260 743 -257 q 686 -267 707 -262 q 572 -275 583 -275 l 468 -275 q 426 -274 449 -275 l 382 -271 l 178 -271 q 71 -247 106 -271 q 46 -179 51 -233 q 47 -167 47 -175 q 46 -119 47 -160 q 43 -112 46 -118 q 42 -101 40 -106 q 44 -81 44 -89 q 39 -64 44 -68 q 43 -58 40 -62 q 42 50 40 -11 q 47 156 42 71 q 57 183 51 165 q 64 188 60 186 q 149 222 83 210 q 239 238 172 226 q 292 238 278 243 q 318 197 306 232 q 347 113 332 158 q 369 56 358 79 q 469 88 424 56 q 492 97 488 94 q 510 114 504 104 q 486 211 519 132 q 454 251 481 224 q 224 286 347 267 q 160 301 222 286 q 110 313 138 307 q 53 361 68 326 q 39 438 43 383 q 29 524 38 460 q 13 713 11 667 q 9 728 13 718 q 6 743 6 738 q 3 789 4 757 q 6 922 3 790 q 8 929 7 925 q 189 1072 17 1018 q 251 1088 221 1082 q 408 1111 386 1111 l 560 1111 q 575 1108 564 1111 q 649 1086 625 1097 l 664 1076 q 692 1051 671 1072 q 738 928 714 1014 q 781 768 749 886 q 779 714 790 732 q 657 639 754 675 q 514 607 568 606 q 476 650 496 607 q 451 713 464 682 q 417 781 432 757 q 406 783 413 783 q 351 767 389 783 q 349 742 351 758 q 347 717 347 725 q 353 621 347 703 q 363 546 356 579 q 369 540 364 544 l 388 540 q 413 539 401 539 l 458 539 q 460 540 451 539 q 485 540 469 540 l 511 540 q 615 532 525 540 q 638 518 622 526 q 733 494 663 513 q 804 471 744 492 q 863 354 840 454 q 861 347 861 351 q 881 149 881 231 l 881 69 z "},"t":{"ha":861,"x_min":-1,"x_max":863,"o":"m 863 0 q 854 -82 861 -22 q 815 -201 842 -129 q 610 -274 779 -274 l 508 -274 q 296 -251 418 -274 q 233 -235 271 -247 q 228 -231 232 -233 q 161 -92 163 -208 q 160 -81 161 -92 q 160 -58 160 -69 l 160 -22 q 160 -22 160 -29 q 161 0 161 -15 q 161 24 161 15 q 160 74 158 69 q 167 89 163 79 q 169 196 167 146 l 175 301 q 176 410 175 343 q 167 503 178 467 q 153 514 164 513 q 54 526 104 518 q 28 532 33 529 q 0 582 1 543 q 22 771 -1 639 q 79 817 38 810 q 186 821 150 828 l 192 821 l 192 901 q 199 1035 192 961 q 235 1065 201 1046 q 367 1113 310 1108 q 431 1106 388 1114 q 485 1082 449 1101 q 506 1031 503 1064 q 518 853 506 954 l 533 853 q 546 854 544 854 l 625 854 q 701 844 663 849 q 801 681 801 824 q 806 642 801 672 q 797 604 808 621 q 728 575 792 594 q 579 528 728 575 q 554 508 567 524 q 540 478 542 492 q 531 367 538 449 l 513 185 q 515 140 513 161 q 547 135 518 136 q 583 133 557 135 l 588 138 q 625 300 593 207 q 682 358 638 335 q 763 379 722 379 q 813 364 797 379 q 833 317 824 351 q 850 151 846 272 q 854 83 851 132 q 856 31 854 69 q 859 16 856 26 q 863 0 863 6 z "},"u":{"ha":1117,"x_min":-1,"x_max":1107,"o":"m 1106 744 q 1103 740 1106 743 q 1090 374 1101 540 q 1079 125 1086 318 q 1075 118 1078 122 q 1069 -29 1074 72 q 1056 -115 1069 -46 q 1049 -157 1051 -136 q 1032 -194 1043 -185 q 1021 -199 1028 -196 q 831 -257 936 -251 q 764 -214 789 -260 q 733 -132 757 -203 q 710 -69 724 -104 q 638 -133 679 -92 q 560 -208 575 -196 q 464 -258 518 -242 q 410 -272 449 -262 q 361 -275 374 -275 q 100 -143 199 -271 q 61 -93 90 -131 q 24 -1 47 -75 q 10 51 13 35 q 3 119 3 101 l 3 131 q 4 142 4 139 q 2 149 4 144 q 0 157 0 154 q 1 201 -1 174 q 4 246 4 235 l 4 361 q 3 418 4 372 q 3 435 3 418 l 3 619 q 4 653 3 638 l 4 747 q 8 796 8 765 l 8 817 q 7 839 7 832 q 38 913 7 865 q 61 949 44 929 q 108 968 86 963 q 128 967 115 967 q 150 975 135 969 q 315 1008 204 986 q 354 1014 304 1008 q 393 1017 379 1017 q 496 917 490 1017 q 493 744 500 826 q 483 663 490 724 q 461 322 461 411 l 461 235 q 482 190 461 208 q 529 171 503 171 q 582 215 567 171 q 597 292 583 218 q 629 619 618 403 q 639 821 635 721 q 640 836 639 826 q 717 1053 642 1003 q 907 1111 811 1117 q 936 1097 917 1104 q 1036 1085 964 1099 q 1074 1057 1067 1075 q 1075 1047 1074 1054 q 1101 906 1088 1018 q 1103 836 1107 863 l 1103 758 q 1106 744 1107 753 z "},"v":{"ha":1089,"x_min":1,"x_max":1118,"o":"m 1110 969 q 1047 703 1094 819 q 974 482 1013 618 q 939 360 965 450 q 864 156 919 290 q 806 15 849 119 q 751 -128 792 -26 q 725 -164 743 -147 l 717 -168 q 531 -260 681 -207 q 482 -275 507 -268 q 453 -264 476 -275 q 422 -247 429 -253 q 347 -69 382 -178 q 305 51 338 -37 q 233 199 272 139 q 214 232 228 207 q 108 471 179 304 q 82 539 101 489 q 36 644 69 567 q 13 721 31 657 q 1 772 10 738 q 61 903 10 828 q 85 924 71 908 q 219 1047 151 1031 q 254 1046 238 1051 q 325 975 303 1029 q 347 889 332 946 q 451 582 354 864 q 539 336 488 478 q 569 390 558 358 q 714 818 575 407 q 753 949 722 847 q 793 1050 761 976 q 821 1099 799 1068 q 863 1113 833 1108 q 938 1103 881 1115 q 1064 1075 981 1097 q 1110 969 1118 1053 z "},"w":{"ha":1861,"x_min":0,"x_max":1869,"o":"m 1868 740 q 1853 654 1867 688 q 1850 633 1853 646 q 1804 475 1843 603 q 1789 436 1799 463 q 1765 306 1783 400 q 1726 161 1749 253 q 1696 26 1718 126 q 1692 -4 1694 15 q 1643 -94 1675 -62 q 1557 -154 1625 -112 q 1469 -200 1526 -172 q 1397 -232 1447 -219 q 1338 -232 1386 -233 q 1222 -124 1276 -186 q 1121 -1 1189 -83 q 1119 6 1121 1 q 1036 122 1078 64 q 943 224 978 199 q 917 146 940 215 q 886 50 915 143 q 885 32 886 43 q 851 -61 860 -40 q 806 -156 829 -117 q 788 -176 799 -162 q 722 -240 758 -225 q 718 -247 721 -243 q 636 -276 663 -276 q 528 -218 593 -276 q 467 -140 501 -194 q 276 183 443 -103 q 114 501 247 235 q 82 563 106 517 q 44 642 72 583 q 17 713 24 685 l 0 783 q 1 839 0 790 l 10 851 q 21 876 15 860 q 115 956 43 889 q 285 1044 211 1044 q 403 961 367 1044 l 408 956 q 436 897 418 936 l 449 872 q 467 810 456 851 q 472 801 469 807 q 511 678 483 753 q 556 556 551 569 l 560 531 q 610 386 589 438 q 633 342 618 371 q 665 417 658 371 q 676 488 668 436 q 719 690 690 549 q 714 692 718 692 q 719 696 714 688 q 757 882 732 761 l 765 903 q 790 1015 772 942 q 806 1047 796 1026 q 810 1069 806 1054 q 836 1097 818 1090 q 911 1110 876 1113 q 940 1114 925 1114 q 1019 1088 989 1114 q 1068 1010 1032 1076 q 1135 886 1100 958 q 1154 835 1139 878 q 1181 782 1164 818 q 1243 613 1207 704 q 1307 486 1246 606 q 1338 581 1317 492 q 1383 776 1342 599 q 1435 999 1390 807 q 1453 1068 1442 1031 q 1489 1100 1461 1097 q 1505 1096 1493 1100 q 1524 1092 1517 1092 q 1642 1044 1579 1086 q 1744 965 1649 1040 q 1783 918 1767 947 q 1863 832 1825 890 q 1868 740 1869 800 z "},"x":{"ha":1178,"x_min":-3,"x_max":1199,"o":"m 1199 117 q 1151 35 1182 74 q 965 -136 1044 -99 q 924 -150 936 -150 q 824 -62 886 -150 q 756 51 814 -49 q 676 157 713 124 q 617 96 640 133 q 497 -75 569 24 q 368 -207 447 -144 q 314 -251 365 -208 q 224 -275 276 -275 q 100 -218 129 -275 q 93 -167 93 -204 q 114 -67 93 -137 q 149 31 132 -3 q 243 233 183 101 q 269 319 271 294 q 193 424 249 361 q 42 606 104 524 q 3 711 -3 664 q 6 743 3 722 q 50 806 13 758 q 54 824 51 813 q 251 968 153 975 q 393 879 322 964 q 531 728 456 804 q 619 828 575 761 q 692 942 656 885 q 696 953 693 946 q 768 1046 739 1015 q 868 1110 824 1106 q 922 1113 892 1113 q 1096 1099 1003 1114 q 1132 1082 1125 1094 q 1133 999 1144 1063 q 1075 829 1119 915 q 999 689 1038 760 q 946 550 946 586 q 972 494 946 532 q 1121 269 1071 351 q 1193 140 1156 208 q 1199 117 1194 132 z "},"y":{"ha":936,"x_min":1,"x_max":924,"o":"m 501 806 m 501 771 m 924 60 q 838 -106 924 -32 q 763 -143 829 -112 q 511 -240 644 -197 q 408 -268 447 -261 q 283 -275 363 -269 q 206 -254 244 -278 q 167 -217 192 -246 q 136 -172 143 -187 q 125 -149 129 -156 q 114 -140 121 -146 q 101 -89 106 -129 q 94 13 94 -21 q 100 153 94 78 q 108 183 103 164 q 126 253 108 206 q 171 286 138 268 q 263 300 214 300 q 275 298 267 300 q 288 296 283 296 l 378 289 q 403 286 399 288 q 421 274 418 282 q 449 158 428 229 q 481 117 453 144 q 488 115 483 115 q 549 158 506 115 q 557 217 560 181 q 553 250 554 257 q 554 258 553 254 q 532 351 551 290 q 510 376 519 374 q 461 382 489 382 q 369 372 426 382 q 278 358 299 360 q 181 354 211 353 q 14 510 10 361 q 13 511 14 511 q 1 632 1 556 q 4 721 1 665 l 7 776 l 7 878 q 10 892 7 890 q 8 904 8 899 q 10 914 8 910 q 7 917 10 915 q 10 924 7 919 q 10 949 11 932 q 7 960 7 958 q 21 972 11 964 q 38 978 26 974 q 61 1000 46 988 q 164 1028 104 1021 l 215 1028 q 235 1026 221 1028 q 321 946 301 1019 q 335 814 332 906 q 343 674 339 706 q 407 639 356 649 q 449 633 435 633 q 475 643 468 633 q 485 668 475 643 q 499 776 494 686 q 503 778 501 776 q 499 822 501 779 q 504 810 500 821 l 504 810 q 503 832 506 818 q 501 828 501 831 q 499 824 500 825 q 501 843 499 833 q 504 838 501 839 q 506 850 506 840 q 499 957 506 869 q 501 996 499 946 q 523 1058 503 1026 q 569 1097 543 1090 q 644 1111 610 1108 q 789 1092 747 1119 q 800 1069 792 1090 q 826 981 818 1025 q 878 682 842 906 q 885 650 879 674 q 892 567 885 621 q 901 481 900 499 q 913 329 904 442 q 919 256 914 313 q 924 182 924 210 l 924 60 z "},"z":{"ha":1040,"x_min":1,"x_max":1039,"o":"m 1039 669 q 1024 586 1039 636 q 986 513 1007 529 q 899 453 960 490 q 622 339 740 390 q 493 256 558 311 q 415 135 417 190 q 426 124 415 131 q 454 115 432 121 q 514 96 458 114 q 578 85 547 85 q 649 129 633 85 q 664 171 656 143 q 676 239 664 188 q 690 290 679 250 q 736 339 703 324 q 801 357 751 346 l 899 357 l 942 344 q 1007 229 1007 314 q 996 143 1007 196 q 875 -136 976 50 q 849 -185 868 -153 q 724 -267 821 -247 q 644 -275 679 -275 q 444 -247 546 -274 q 238 -192 388 -231 q 136 -168 188 -181 q 42 -128 79 -154 q 3 -40 15 -110 q 1 -3 4 -26 q 3 38 1 -7 q 17 150 4 94 q 32 188 18 154 q 42 222 35 199 q 69 279 53 242 q 121 371 82 329 q 207 425 160 413 q 265 461 214 426 q 392 518 288 475 q 503 560 444 539 q 564 576 504 560 q 625 603 599 586 q 649 626 631 610 q 689 736 696 671 l 689 754 q 651 817 681 788 q 588 853 621 846 q 524 840 568 857 q 439 756 463 818 q 417 651 431 733 q 406 589 417 629 q 228 554 385 557 q 83 618 114 553 q 56 654 67 654 q 60 738 56 682 q 63 819 64 794 q 68 853 61 836 q 65 860 71 860 q 72 871 65 864 q 68 878 72 876 q 74 892 69 874 q 72 910 72 899 q 89 981 88 947 q 126 1058 90 1007 q 460 1111 181 1113 q 675 1101 521 1111 q 986 1011 929 1086 q 1017 938 1008 982 q 1022 931 1018 935 q 1026 881 1025 922 l 1029 878 q 1039 819 1039 810 l 1039 669 m 71 808 l 71 819 l 65 819 l 65 808 l 71 808 m 60 656 l 60 671 l 56 671 l 56 656 l 60 656 z "}}}
